<?xml version="1.0" encoding="UTF-8" standalone="no"?>
<!-- Created with Inkscape (http://www.inkscape.org/) -->

<svg
   xmlns:dc="http://purl.org/dc/elements/1.1/"
   xmlns:cc="http://creativecommons.org/ns#"
   xmlns:rdf="http://www.w3.org/1999/02/22-rdf-syntax-ns#"
   xmlns:svg="http://www.w3.org/2000/svg"
   xmlns="http://www.w3.org/2000/svg"
   xmlns:sodipodi="http://sodipodi.sourceforge.net/DTD/sodipodi-0.dtd"
   xmlns:inkscape="http://www.inkscape.org/namespaces/inkscape"
   id="svg2"
   version="1.1"
   inkscape:version="0.91 r"
   xml:space="preserve"
   width="361.66251"
   height="153.53751"
   viewBox="0 0 361.66251 153.53751"
   sodipodi:docname="symfony.eps"><metadata
     id="metadata8"><rdf:RDF><cc:Work
         rdf:about=""><dc:format>image/svg+xml</dc:format><dc:type
           rdf:resource="http://purl.org/dc/dcmitype/StillImage" /><dc:title></dc:title></cc:Work></rdf:RDF></metadata><defs
     id="defs6" /><sodipodi:namedview
     pagecolor="#ffffff"
     bordercolor="#666666"
     borderopacity="1"
     objecttolerance="10"
     gridtolerance="10"
     guidetolerance="10"
     inkscape:pageopacity="0"
     inkscape:pageshadow="2"
     inkscape:window-width="890"
     inkscape:window-height="480"
     id="namedview4"
     showgrid="false"
     inkscape:zoom="1.0838834"
     inkscape:cx="66.889111"
     inkscape:cy="76.768753"
     inkscape:window-x="75"
     inkscape:window-y="34"
     inkscape:window-maximized="0"
     inkscape:current-layer="g10" /><g
     id="g10"
     inkscape:groupmode="layer"
     inkscape:label="ink_ext_XXXXXX"
     transform="matrix(1.25,0,0,-1.25,0,153.5375)"><g
       id="g12"
       transform="scale(0.1,0.1)"><path
         d="m 0,0 2893.33,0 0,1228.33 L 0,1228.33 0,0 Z"
         style="fill:#ffffff;fill-opacity:1;fill-rule:nonzero;stroke:none"
         id="path14"
         inkscape:connector-curvature="0" /><path
         d="m 1079.06,636.488 c 0,-216.425 -175.431,-391.875 -391.857,-391.875 -216.406,0 -391.844,175.45 -391.844,391.875 0,216.407 175.438,391.832 391.844,391.832 216.426,0 391.857,-175.425 391.857,-391.832"
         style="fill:#231f20;fill-opacity:1;fill-rule:nonzero;stroke:none"
         id="path16"
         inkscape:connector-curvature="0" /><path
         d="m 858.531,883.34 c -39.816,-1.363 -74.554,-23.32 -100.426,-53.652 -28.632,-33.301 -47.683,-72.754 -61.421,-113.04 -24.551,20.114 -43.493,46.18 -82.891,57.508 -30.453,8.77 -62.441,5.157 -91.844,-16.758 -13.929,-10.406 -23.535,-26.125 -28.101,-40.933 -11.805,-38.422 12.422,-72.625 23.437,-84.91 l 24.094,-25.789 c 4.953,-5.059 16.922,-18.262 11.078,-37.188 -6.301,-20.586 -31.117,-33.887 -56.559,-26.055 -11.367,3.497 -27.679,11.954 -24.035,23.868 1.516,4.863 5,8.535 6.891,12.714 1.695,3.614 2.531,6.348 3.047,7.969 4.648,15.137 -1.711,34.879 -17.953,39.914 -15.164,4.637 -30.668,0.95 -36.696,-18.554 -6.832,-22.2 3.801,-62.454 60.653,-79.973 66.605,-20.469 122.953,15.801 130.933,63.105 5.055,29.602 -8.347,51.625 -32.832,79.926 l -19.972,22.098 c -12.094,12.078 -16.246,32.68 -3.727,48.5 10.559,13.375 25.59,19.062 50.254,12.359 35.973,-9.761 52.004,-34.722 78.734,-54.855 -11.023,-36.235 -18.246,-72.586 -24.773,-105.215 l -4.016,-24.297 C 643.285,469.789 628.691,414.691 590.754,383.09 c -7.641,-5.449 -18.582,-13.594 -35.051,-14.16 -8.637,-0.274 -11.418,5.683 -11.531,8.261 -0.195,6.036 4.898,8.829 8.285,11.563 5.082,2.773 12.746,7.363 12.215,22.031 -0.551,17.363 -14.938,32.422 -35.711,31.738 -15.582,-0.488 -39.313,-15.156 -38.418,-42.011 0.934,-27.715 26.742,-48.496 65.691,-47.149 20.817,0.703 67.301,9.141 113.106,63.633 53.32,62.422 68.226,133.984 79.433,186.328 l 12.54,69.18 c 6.933,-0.848 14.386,-1.426 22.472,-1.606 66.418,-1.406 99.617,32.973 100.133,58.004 0.32,15.137 -9.938,30.063 -24.328,29.692 -10.27,-0.278 -23.18,-7.133 -26.289,-21.348 -3.031,-13.945 21.133,-26.547 2.258,-38.793 -13.414,-8.68 -37.469,-14.793 -71.336,-9.836 l 6.152,34.035 c 12.563,64.559 28.07,143.934 86.891,145.887 4.293,0.195 19.961,-0.195 20.332,-10.555 0.101,-3.457 -0.766,-4.375 -4.805,-12.293 -4.148,-6.179 -5.703,-11.445 -5.52,-17.484 0.582,-16.473 13.114,-27.309 31.25,-26.676 24.258,0.813 31.239,24.414 30.832,36.559 -0.988,28.535 -31.054,46.562 -70.824,45.25"
         style="fill:#ffffff;fill-opacity:1;fill-rule:nonzero;stroke:none"
         id="path18"
         inkscape:connector-curvature="0" /><path
         d="m 2099.24,549.652 c 39.98,0 57.85,36.387 57.85,69.512 0,35.289 -21.48,69.492 -57.85,69.492 -36.74,0 -58.2,-34.203 -58.2,-69.492 0,-33.125 17.81,-69.512 58.2,-69.512 z m 0,166.657 c 56.4,0 94.24,-40.75 94.24,-97.145 0,-53.125 -38.58,-97.148 -94.24,-97.148 -56,0 -94.61,44.023 -94.61,97.148 0,56.395 37.83,97.145 94.61,97.145"
         style="fill:#231f20;fill-opacity:1;fill-rule:nonzero;stroke:none"
         id="path20"
         inkscape:connector-curvature="0" /><path
         d="m 1999.96,699.031 0,12.922 -49.14,0 0,17.649 c 0,25.093 3.65,44.027 33.09,44.027 0.56,0 1.13,-0.035 1.7,-0.059 0.07,0 0.05,0.086 0.13,0.086 8.19,-0.605 14.96,6.071 15.41,14.239 l 0.61,11.203 c -6.92,1.097 -14.22,2.191 -22.91,2.191 -50.61,0 -62.23,-29.473 -62.23,-74.613 l 0,-14.723 -43.65,0 0,-14.418 c 1.11,-7.469 7.48,-13.203 15.29,-13.203 0.04,0 0.08,-0.039 0.12,-0.039 l 28.24,0 0,-157.922 18.85,0 c 0.04,0 0.02,0.02 0.06,0.02 7.81,0 14.24,5.859 15.29,13.398 l 0,144.504 34.2,0 c 8.09,0.246 14.55,6.691 14.94,14.738"
         style="fill:#231f20;fill-opacity:1;fill-rule:nonzero;stroke:none"
         id="path22"
         inkscape:connector-curvature="0" /><path
         d="m 1544.36,711.953 c -0.06,0 -0.1,-0.043 -0.18,-0.043 -7.21,0 -14.18,-4.972 -17.25,-11.652 l -47.03,-141.856 -0.74,0 -46.03,141.782 c -3.01,6.726 -10.02,11.726 -17.29,11.726 -0.07,0 -0.07,0.043 -0.15,0.043 l -23.86,0 62.96,-173.199 c 2.16,-6.211 6.54,-15.664 6.54,-19.668 0,-3.633 -10.18,-45.801 -40.75,-45.801 -0.78,0 -1.51,0.059 -2.27,0.098 -7.81,0.41 -13.72,-5 -15.02,-13.418 l -0.91,-11.836 c 6.18,-1.094 12.4,-2.539 23.3,-2.539 45.1,0 58.56,41.152 71.33,76.777 l 68.4,189.586 -21.05,0"
         style="fill:#231f20;fill-opacity:1;fill-rule:nonzero;stroke:none"
         id="path24"
         inkscape:connector-curvature="0" /><path
         d="m 1326.91,674.242 c -28.24,14.453 -59.15,24.274 -59.68,53.352 0.08,30.886 28.46,38.988 50.33,38.972 0.1,0.016 0.17,0.016 0.24,0.016 9.49,0 17.08,-0.945 24.51,-2.574 0.1,0 0.08,0.113 0.2,0.113 7.83,-0.562 14.41,5.559 15.34,13.281 l 0.62,11.227 c -14.33,3.555 -29.33,5.363 -42.35,5.363 -47.57,-0.293 -82.87,-24.219 -82.99,-69.871 0.06,-39.918 26.99,-55.383 55.91,-69.391 28.36,-13.652 59.45,-24.917 59.73,-57.832 -0.18,-34.394 -33.34,-47.109 -56.19,-47.128 -13.37,0.019 -27.88,3.378 -40.13,7.285 -7.66,1.25 -13.93,-5.528 -14.91,-14.492 l -1.05,-10 c 16.81,-5.45 34.05,-10.157 51.36,-10.157 0,0 0.02,0 0.06,0 0.04,0 0.08,0 0.16,0 53.27,0.391 94.66,21.621 94.82,76.797 -0.06,42.535 -27.18,60.402 -55.98,75.039"
         style="fill:#231f20;fill-opacity:1;fill-rule:nonzero;stroke:none"
         id="path26"
         inkscape:connector-curvature="0" /><path
         d="m 1844.26,526.371 c 0.02,0 0.02,0.02 0.04,0.02 7.4,0 13.53,5.175 15.11,12.089 l 0,106.872 c 0,40.39 -17.09,70.957 -64.45,70.957 -16.72,0 -44.73,-9.477 -57.44,-36.039 -9.84,25.125 -31.33,36.039 -52.77,36.039 -27.27,0 -45.84,-9.825 -58.97,-31.305 l -0.7,0 0,11.555 c -0.12,8.492 -6.97,15.351 -15.49,15.351 -0.08,0 -0.12,0.043 -0.18,0.043 l -16.38,0 0,-185.582 18.55,0 c 0.02,0 0.02,0.02 0.04,0.02 8.58,0 15.51,6.933 15.51,15.527 0,0.215 0.08,0.312 0.14,0.469 l 0,77.48 c 0,34.586 13.84,68.789 48.73,68.789 27.65,0 33.14,-28.746 33.14,-51.668 l 0,-110.617 18.77,0 c 0.02,0 0.02,0.02 0.06,0.02 8.08,0 14.63,6.23 15.37,14.101 l 0,79.375 c 0,34.586 13.83,68.789 48.77,68.789 27.62,0 33.07,-28.746 33.07,-51.668 l 0,-110.617 19.08,0"
         style="fill:#231f20;fill-opacity:1;fill-rule:nonzero;stroke:none"
         id="path28"
         inkscape:connector-curvature="0" /><path
         d="m 2372.77,526.371 c 0.04,0 0.04,0.02 0.08,0.02 8.34,0 15.04,6.601 15.41,14.804 l 0,95.41 c 0,49.856 -21.44,79.704 -69.51,79.704 -25.78,0 -50.53,-12.746 -60.72,-33.864 l -0.73,0 0,13.868 c 0,0.019 -0.03,0.019 -0.03,0.058 0,8.586 -6.96,15.539 -15.51,15.539 -0.08,0 -0.12,0.043 -0.18,0.043 l -17.44,0 0,-185.582 18.83,0 c 0,0 0,0.02 0.06,0.02 8.1,0 14.7,6.308 15.33,14.297 l 0,71.562 c 0,45.098 17.52,76.406 56.43,76.406 29.84,-1.824 39.29,-22.926 39.29,-66.218 l 0,-96.067 18.69,0"
         style="fill:#231f20;fill-opacity:1;fill-rule:nonzero;stroke:none"
         id="path30"
         inkscape:connector-curvature="0" /><path
         d="m 2556.91,711.953 c -0.05,0 -0.09,-0.043 -0.15,-0.043 -7.21,0 -14.22,-4.972 -17.25,-11.652 l -47.03,-141.856 -0.8,0 -46.02,141.782 c -2.98,6.726 -10.02,11.726 -17.24,11.726 -0.08,0 -0.12,0.043 -0.18,0.043 l -23.85,0 62.95,-173.199 c 2.17,-6.211 6.57,-15.664 6.57,-19.668 0,-3.633 -10.2,-45.801 -40.78,-45.801 -0.75,0 -1.53,0.059 -2.27,0.098 -7.77,0.41 -13.67,-5 -14.98,-13.418 l -0.94,-11.836 c 6.19,-1.094 12.38,-2.539 23.3,-2.539 45.14,0 58.6,41.152 71.33,76.777 l 68.4,189.586 -21.06,0"
         style="fill:#231f20;fill-opacity:1;fill-rule:nonzero;stroke:none"
         id="path32"
         inkscape:connector-curvature="0" /></g></g></svg>