<?xml version="1.0" encoding="UTF-8" standalone="no"?>
<!-- Created with Inkscape (http://www.inkscape.org/) -->

<svg
   xmlns:dc="http://purl.org/dc/elements/1.1/"
   xmlns:cc="http://creativecommons.org/ns#"
   xmlns:rdf="http://www.w3.org/1999/02/22-rdf-syntax-ns#"
   xmlns:svg="http://www.w3.org/2000/svg"
   xmlns="http://www.w3.org/2000/svg"
   xmlns:sodipodi="http://sodipodi.sourceforge.net/DTD/sodipodi-0.dtd"
   xmlns:inkscape="http://www.inkscape.org/namespaces/inkscape"
   width="400"
   height="400"
   viewBox="0 0 400.00001 399.99999"
   id="svg13452"
   version="1.1"
   inkscape:version="0.91 r">
  <defs
     id="defs13454" />
  <sodipodi:namedview
     id="base"
     pagecolor="#ffffff"
     bordercolor="#666666"
     borderopacity="1.0"
     inkscape:pageopacity="0.0"
     inkscape:pageshadow="2"
     inkscape:zoom="0.35"
     inkscape:cx="-694.76899"
     inkscape:cy="17.884377"
     inkscape:document-units="px"
     inkscape:current-layer="layer1"
     showgrid="false"
     fit-margin-top="0"
     fit-margin-left="0"
     fit-margin-right="0"
     fit-margin-bottom="0"
     inkscape:window-width="1855"
     inkscape:window-height="1056"
     inkscape:window-x="65"
     inkscape:window-y="24"
     inkscape:window-maximized="1"
     units="px" />
  <metadata
     id="metadata13457">
    <rdf:RDF>
      <cc:Work
         rdf:about="">
        <dc:format>image/svg+xml</dc:format>
        <dc:type
           rdf:resource="http://purl.org/dc/dcmitype/StillImage" />
        <dc:title></dc:title>
      </cc:Work>
    </rdf:RDF>
  </metadata>
  <g
     inkscape:label="Layer 1"
     inkscape:groupmode="layer"
     id="layer1"
     transform="translate(-359.76899,-150.24657)">
    <g
       id="g7035"
       transform="matrix(4.7878815,0,0,4.4444444,4626.6365,-1471.0167)">
      <path
         style="fill:#131313;fill-rule:evenodd;stroke:none;stroke-width:1"
         inkscape:connector-curvature="0"
         d="m -831.32437,368.1165 -5.29185,0 5.5032,5.97155 0,2.84249 -11.3352,0 0,-3.32799 5.50212,0 -5.50212,-5.97176 0,-2.84655 11.12385,0 0,3.33226 0,0 z m -13.37066,0 -5.29185,0 5.50298,5.97155 0,2.84249 -11.3352,0 0,-3.32799 5.50277,0 -5.50277,-5.97176 0,-2.84655 11.12407,0 0,3.33226 0,0 z m -13.23991,0.13526 -5.71026,0 0,5.21147 5.71026,0 0,3.46731 -9.76874,0 0,-12.1463 9.76874,0 0,3.46752 0,0 z m 0,0"
         id="Shape" />
      <path
         style="fill:#000000;fill-rule:evenodd;stroke:none;stroke-width:1"
         inkscape:connector-curvature="0"
         d="m -875.48498,447.55617 -5.80264,-65.08064 63.75811,0 -5.808,65.07014 -26.11007,7.23857 -26.0374,-7.22807 z m 0,0"
         id="path6901" />
      <path
         style="fill:#262937;fill-opacity:1;fill-rule:evenodd;stroke:none;stroke-width:1"
         inkscape:connector-curvature="0"
         d="m -849.40814,449.25146 21.09773,-5.84916 4.96368,-55.60534 -26.06141,0 0,61.4545 z m 0,0"
         id="path6903" />
      <g
         id="Group"
         transform="matrix(0.214349,0,0,0.214349,-869.51364,395.19286)"
         style="fill:none;fill-rule:evenodd;stroke:none;stroke-width:1">
        <path
           style="fill:#ffffff"
           inkscape:connector-curvature="0"
           d="m 93.797,75.496 49.275,0 3.403,-38.132 -52.678,0 0,-37.239 0.129,0 93.246,0 -0.893,9.991 -9.152,102.616 -83.33,0 0,-37.236 z m 0,0"
           id="path6906" />
        <path
           style="fill:#ebebeb"
           inkscape:connector-curvature="0"
           d="m 94.02,172.204 -0.163,0.046 -41.472,-11.199 -2.652,-29.698 -20.151,0 -17.228,0 5.216,58.467 76.278,21.176 0.172,-0.048 0,-38.744 z m 0,0"
           id="path6908" />
        <path
           style="fill:#ffffff"
           inkscape:connector-curvature="0"
           d="m 139.907,111.156 -4.484,49.87 -41.532,11.21 0,38.742 76.339,-21.158 0.56,-6.29 6.478,-72.374 -37.361,0 z m 0,0"
           id="path6910" />
        <path
           style="fill:#ebebeb"
           inkscape:connector-curvature="0"
           d="m 93.926,0.125 0,23.128 0,14.019 0,0.092 -89.828,0 -0.119,0 -0.747,-8.37 -1.697,-18.878 -0.89,-9.991 93.281,0 z m 0,0"
           id="path6912" />
        <path
           style="fill:#ebebeb"
           inkscape:connector-curvature="0"
           d="m 93.797,75.5 0,23.129 0,14.017 0,0.092 -40.828,0 -0.119,0 -0.746,-8.369 -1.698,-18.878 -0.89,-9.991 44.281,0 z m 0,0"
           id="path6914" />
      </g>
    </g>
  </g>
</svg>
