<?xml version="1.0" encoding="UTF-8" standalone="no"?>
<!-- Created with Inkscape (http://www.inkscape.org/) -->

<svg
   xmlns:dc="http://purl.org/dc/elements/1.1/"
   xmlns:cc="http://creativecommons.org/ns#"
   xmlns:rdf="http://www.w3.org/1999/02/22-rdf-syntax-ns#"
   xmlns:svg="http://www.w3.org/2000/svg"
   xmlns="http://www.w3.org/2000/svg"
   xmlns:sodipodi="http://sodipodi.sourceforge.net/DTD/sodipodi-0.dtd"
   xmlns:inkscape="http://www.inkscape.org/namespaces/inkscape"
   width="400"
   height="400"
   viewBox="0 0 400.00001 399.99999"
   id="svg13452"
   version="1.1"
   inkscape:version="0.91 r">
  <defs
     id="defs13454">
    <clipPath
       clipPathUnits="userSpaceOnUse"
       id="clipPath8710">
      <rect
         style="opacity:1;fill:#ffffff;fill-opacity:1;fill-rule:nonzero;stroke:#ffffff;stroke-width:0.37413713;stroke-linecap:round;stroke-linejoin:round;stroke-miterlimit:4;stroke-dasharray:none;stroke-opacity:1"
         id="rect8712"
         width="411.53702"
         height="285.67203"
         x="1.7830619"
         y="0.1870763" />
    </clipPath>
    <filter
       style="color-interpolation-filters:sRGB"
       inkscape:label="Greyscale"
       id="filter8495">
      <feColorMatrix
         values="0.5 0.7 0 -0.1 0 0.5 0.7 0 -0.1 0 0.5 0.7 0 -0.1 0 0 0 0 1 0 "
         id="feColorMatrix8497" />
    </filter>
  </defs>
  <sodipodi:namedview
     id="base"
     pagecolor="#ffffff"
     bordercolor="#666666"
     borderopacity="1.0"
     inkscape:pageopacity="0.0"
     inkscape:pageshadow="2"
     inkscape:zoom="0.35"
     inkscape:cx="-694.76899"
     inkscape:cy="17.884377"
     inkscape:document-units="px"
     inkscape:current-layer="layer1"
     showgrid="false"
     fit-margin-top="0"
     fit-margin-left="0"
     fit-margin-right="0"
     fit-margin-bottom="0"
     inkscape:window-width="1855"
     inkscape:window-height="1056"
     inkscape:window-x="65"
     inkscape:window-y="24"
     inkscape:window-maximized="1"
     units="px" />
  <metadata
     id="metadata13457">
    <rdf:RDF>
      <cc:Work
         rdf:about="">
        <dc:format>image/svg+xml</dc:format>
        <dc:type
           rdf:resource="http://purl.org/dc/dcmitype/StillImage" />
        <dc:title></dc:title>
      </cc:Work>
    </rdf:RDF>
  </metadata>
  <g
     inkscape:label="Layer 1"
     inkscape:groupmode="layer"
     id="layer1"
     transform="translate(-359.76899,-150.24657)">
    <path
       style="fill:#000000"
       d="m 716.41828,516.95507 c -7.64579,-3.93352 -14.17349,-11.81124 -16.4192,-19.815 -2.47585,-8.82381 -2.46554,-13.17665 0.0533,-22.18286 2.78458,-9.95942 11.28481,-18.62891 20.41183,-20.81835 12.14495,-2.91356 23.54017,0.37958 30.32699,8.76523 l 3.62133,4.47426 -2.818,2.28198 c -4.85668,3.93263 -8.17702,4.109 -10.95173,0.58136 -5.94234,-7.5545 -14.40453,-8.25302 -21.75831,-1.79627 -4.12242,3.61956 -7.789,11.95588 -7.789,17.7094 0,5.79717 3.66631,14.08975 7.85567,17.76798 6.83047,5.99727 16.85122,4.618 21.8808,-3.01171 3.65831,-5.54969 3.07082,-6.44795 -4.21789,-6.44795 l -6.52805,0 0,-5.34106 0,-5.34106 13.8028,0 13.80272,0 -0.8116,7.17457 c -1.48309,13.10819 -7.66037,22.46438 -17.55721,26.59222 -6.36875,2.65622 -17.12945,2.37772 -22.90369,-0.59291 z m -355.46219,-30.76558 0,-32.08103 16.02327,0 16.02336,0 0,5.93451 0,5.9346 -10.08867,0 -10.08885,0 0,6.47996 0,6.47996 9.79204,0.34491 9.79203,0.3449 0,5.34106 0,5.34115 -9.79203,0.34491 -9.79204,0.3449 0,7.66695 0,7.66695 10.15383,0 10.15374,0 -0.3618,5.63779 -0.36179,5.63779 -15.72672,0.33157 -15.72655,0.33157 0,-32.08103 z m 62.56545,31.27556 c -0.4658,-0.46491 -0.84627,-14.96997 -0.84627,-32.23259 l 0,-31.38659 12.75929,0.45602 c 18.26009,0.65248 24.10935,4.77046 24.93944,17.55615 0.50491,7.77886 -2.06713,13.4931 -7.85212,17.44413 l -3.73911,2.55382 8.22004,12.47207 c 4.52102,6.85971 7.90483,12.78738 7.51939,13.17282 -1.00245,1.00245 -12.51448,0.83293 -14.07909,-0.20712 -0.72181,-0.47914 -4.30607,-5.9082 -7.96607,-12.06343 l -6.65455,-11.19148 -0.34224,11.78493 -0.34224,11.78484 -5.38533,0.35201 c -2.96192,0.1929 -5.76596,-0.0267 -6.23132,-0.49424 z m 22.23148,-37.50866 c 4.14953,-5.92438 -0.11556,-15.16572 -7.00025,-15.16572 -2.9685,0 -3.02122,0.15556 -3.02122,8.90177 l 0,8.90185 4.08687,0 c 2.87774,0 4.63347,-0.78048 5.9346,-2.6379 z m 45.12611,36.77903 c -0.32535,-0.84804 -0.44891,-15.15256 -0.27468,-31.78768 l 0.31823,-30.24583 5.9346,0 5.93451,0 0.31913,25.8153 0.32002,25.8153 8.35027,0 8.35027,0 -0.36179,5.63779 -0.3618,5.63787 -13.96894,0.33424 c -10.60736,0.25424 -14.11136,-0.0356 -14.56062,-1.20735 z m 51.42703,0.82315 c -0.35379,-0.35379 2.73711,-9.29992 6.86843,-19.8807 4.1314,-10.58078 9.60108,-24.57889 12.1549,-31.10685 l 4.64334,-11.86911 5.28265,-0.3529 5.28275,-0.35291 11.56945,31.07716 c 7.11635,19.11533 11.14543,31.50126 10.46789,32.1789 -0.60625,0.60625 -3.34825,0.93382 -6.09399,0.72892 -5.2095,-0.38935 -6.87118,-2.05592 -9.54162,-9.5714 -1.15321,-3.24576 -1.22166,-3.26398 -12.27473,-3.26398 l -11.11503,0 -1.61874,4.90459 c -0.89027,2.69756 -2.34918,5.63521 -3.24203,6.52806 -1.55812,1.55812 -11.05378,2.30989 -12.38327,0.98031 z m 35.48075,-24.5788 c -0.31379,-0.81604 -1.82773,-5.34541 -3.36292,-10.06537 -1.53518,-4.71979 -3.25776,-8.43668 -3.82801,-8.25952 -0.7467,0.23201 -6.06927,15.89109 -6.63205,19.5118 -0.0267,0.16356 3.20309,0.2969 7.17421,0.2969 5.28995,0 7.06764,-0.39646 6.64877,-1.48354 z m 44.56661,-7.1215 0.31646,-31.15636 4.71775,0 c 4.69498,0 4.7909,0.0951 19.89963,19.58398 8.3501,10.77128 15.47862,19.58406 15.84122,19.58406 0.36268,0 0.7547,-8.81278 0.87115,-19.58406 l 0.21245,-19.58398 6.52806,0 6.52796,0 0.31646,31.15636 0.31646,31.15645 -5.06398,-0.004 -5.06407,-0.004 -16.02336,-20.34153 -16.02327,-20.34143 -0.32446,20.34472 -0.32446,20.3449 -6.51969,0 -6.5197,0 0.31646,-31.15609 z m -262.58433,-177.73976 0,-126.99943 27.43982,0 27.43992,0 -3.40417,4.45089 c -16.73815,21.88559 -27.09776,44.85907 -33.85285,75.0721 -2.51381,11.24383 -2.78404,15.30599 -2.76297,41.54184 0.0267,31.08623 0.88804,38.3136 7.19537,60.23369 6.98692,24.28331 22.45389,52.51855 37.71152,68.84282 l 3.60533,3.85752 -31.68598,0 -31.68599,0 0,-126.99943 z m 359.33242,114.0724 c 8.64335,-10.7535 25.22665,-35.35043 25.22665,-37.41693 0,-0.31824 -13.34465,-7.24969 -29.65469,-15.40351 l -29.65468,-14.82499 -7.06826,10.31677 c -18.4305,26.90051 -41.18698,45.20958 -65.36949,52.59385 -12.26344,3.74463 -33.45256,3.81734 -45.96926,0.15823 -34.1422,-9.98271 -53.90005,-37.59712 -60.9339,-85.1637 -1.25482,-8.48637 -2.28411,-19.56655 -2.28713,-24.62253 l -0.006,-9.19272 116.02049,-0.30312 116.02049,-0.30313 0.38046,-12.46247 c 0.72804,-23.88819 -2.67684,-47.89602 -9.51291,-67.06051 -3.21864,-9.02338 -10.92648,-24.62218 -15.35434,-31.07352 -1.8729,-2.72884 -3.40533,-5.27616 -3.40533,-5.66098 0,-0.38491 11.61684,-0.55558 25.81531,-0.37958 l 25.8153,0.32002 0.30223,126.70279 0.30224,126.70261 -25.52862,0 -25.52871,0 10.3902,-12.92694 z M 507.42784,233.34127 c 3.43839,-25.92002 26.94985,-46.28768 53.43238,-46.28768 20.24356,0 38.50401,10.14441 45.66445,25.36835 2.99134,6.36004 6.05647,18.94964 6.05647,24.87579 0,1.81902 -4.30457,1.97992 -52.9704,1.97992 l -52.9704,0 0.78759,-5.93638 z"
       id="path10584"
       inkscape:connector-curvature="0" />
  </g>
</svg>
