<?xml version="1.0" encoding="UTF-8" standalone="no"?>
<!-- Created with Inkscape (http://www.inkscape.org/) -->

<svg
   xmlns:dc="http://purl.org/dc/elements/1.1/"
   xmlns:cc="http://creativecommons.org/ns#"
   xmlns:rdf="http://www.w3.org/1999/02/22-rdf-syntax-ns#"
   xmlns:svg="http://www.w3.org/2000/svg"
   xmlns="http://www.w3.org/2000/svg"
   xmlns:sodipodi="http://sodipodi.sourceforge.net/DTD/sodipodi-0.dtd"
   xmlns:inkscape="http://www.inkscape.org/namespaces/inkscape"
   width="400"
   height="400"
   viewBox="0 0 400.00001 399.99999"
   id="svg13452"
   version="1.1"
   inkscape:version="0.91 r">
  <defs
     id="defs13454" />
  <sodipodi:namedview
     id="base"
     pagecolor="#ffffff"
     bordercolor="#666666"
     borderopacity="1.0"
     inkscape:pageopacity="0.0"
     inkscape:pageshadow="2"
     inkscape:zoom="0.35"
     inkscape:cx="-694.76899"
     inkscape:cy="17.884377"
     inkscape:document-units="px"
     inkscape:current-layer="layer1"
     showgrid="false"
     fit-margin-top="0"
     fit-margin-left="0"
     fit-margin-right="0"
     fit-margin-bottom="0"
     inkscape:window-width="1855"
     inkscape:window-height="1056"
     inkscape:window-x="65"
     inkscape:window-y="24"
     inkscape:window-maximized="1"
     units="px" />
  <metadata
     id="metadata13457">
    <rdf:RDF>
      <cc:Work
         rdf:about="">
        <dc:format>image/svg+xml</dc:format>
        <dc:type
           rdf:resource="http://purl.org/dc/dcmitype/StillImage" />
        <dc:title></dc:title>
      </cc:Work>
    </rdf:RDF>
  </metadata>
  <g
     inkscape:label="Layer 1"
     inkscape:groupmode="layer"
     id="layer1"
     transform="translate(-359.76899,-150.24657)">
    <g
       id="g7046"
       transform="matrix(4.7878816,0,0,4.4444445,5482.1768,-2198.6054)">
      <g
         transform="matrix(1.0010494,0,0,1.0010494,-224.03854,35.617409)"
         id="g7021">
        <path
           style="fill:#000000;fill-rule:evenodd;stroke:none;stroke-width:1"
           inkscape:connector-curvature="0"
           d="m -829.29222,575.03519 -5.80264,-65.08064 63.75811,0 -5.808,65.07014 -26.11007,7.23857 -26.0374,-7.22807 z m 0,0"
           id="path6980" />
        <g
           id="g6735"
           transform="matrix(0.19093038,0,0,0.19093038,-852.09417,488.47943)">
          <path
             style="fill:#231f20"
             inkscape:connector-curvature="0"
             d="m 119.387,20.312 21.298,0 0,21.045 19.485,0 0,-21.045 21.303,0 0,63.727 -21.303,0 0,-21.339 -19.485,0 0,21.338 -21.298,0 0,-63.726 z"
             id="path6737" />
          <path
             style="fill:#231f20"
             inkscape:connector-curvature="0"
             d="m 209.482,41.444 -18.754,0 0,-21.132 58.812,0 0,21.133 -18.759,0 0,42.594 -21.3,0 0,-42.595 z"
             id="path6739" />
          <path
             style="fill:#231f20"
             inkscape:connector-curvature="0"
             d="m 258.879,20.312 22.21,0 13.661,22.392 13.648,-22.392 22.219,0 0,63.727 -21.212,0 0,-31.586 -14.655,22.658 -0.366,0 -14.665,-22.658 0,31.585 -20.84,0 0,-63.726 z"
             id="path6741" />
          <path
             style="fill:#231f20"
             inkscape:connector-curvature="0"
             d="m 341.219,20.312 21.308,0 0,42.664 29.955,0 0,21.062 -51.263,0 0,-63.726 z"
             id="path6743" />
        </g>
        <path
           style="opacity:1;fill:#262937;stroke:none"
           inkscape:connector-curvature="0"
           d="m -793.36551,547.39864 -9.85048,0 0,12.78737 8.92179,-2.40821 0.92869,-10.37916 z m -9.85048,-32.20289 0,8.00265 20.04291,0 -0.71675,8.00285 -19.32616,0 0,8.19473 18.59776,0 -2.19551,24.56949 -16.40225,4.54701 0,8.30433 21.13484,-5.85908 4.97775,-55.76218 -26.11259,0 z"
           id="path6747" />
        <g
           id="g7015">
          <g
             transform="matrix(0.19093038,0,0,0.19093038,-852.09417,488.47943)"
             id="g6749"
             style="opacity:1;fill:#ebebeb;fill-opacity:1">
            <polygon
               id="polygon6751"
               points="196.831,223.756 256,223.756 256,181.841 151.025,181.841 162.331,308.59 256,308.59 256,266.676 200.662,266.676 "
               style="fill:#ebebeb;fill-opacity:1" />
            <polygon
               id="polygon6753"
               points="255.933,419.193 256,419.174 256,375.563 255.941,375.582 209.262,362.975 206.146,328.061 164.07,328.061 170.074,395.358 "
               style="fill:#ebebeb;fill-opacity:1" />
          </g>
          <path
             inkscape:connector-curvature="0"
             id="rect6989"
             d="m -803.21599,523.1984 0,8.01045 19.44784,0 0.72153,-8.01045 -20.16937,0 z m 0,16.21367 0,8.01046 9.91267,0 -0.93437,10.39056 -8.9783,2.4109 0,8.33441 16.5055,-4.5514 2.2101,-24.59493 -18.7156,0 z"
             style="opacity:1;fill:#ffffff;fill-opacity:1;fill-rule:nonzero;stroke:none;stroke-width:4;stroke-linecap:round;stroke-linejoin:round;stroke-miterlimit:4;stroke-dasharray:none;stroke-opacity:1" />
        </g>
      </g>
    </g>
  </g>
</svg>
