<?xml version="1.0" encoding="UTF-8" standalone="no"?>
<!-- Created with Inkscape (http://www.inkscape.org/) -->

<svg
   xmlns:dc="http://purl.org/dc/elements/1.1/"
   xmlns:cc="http://creativecommons.org/ns#"
   xmlns:rdf="http://www.w3.org/1999/02/22-rdf-syntax-ns#"
   xmlns:svg="http://www.w3.org/2000/svg"
   xmlns="http://www.w3.org/2000/svg"
   xmlns:sodipodi="http://sodipodi.sourceforge.net/DTD/sodipodi-0.dtd"
   xmlns:inkscape="http://www.inkscape.org/namespaces/inkscape"
   width="400"
   height="400"
   viewBox="0 0 400.00001 399.99999"
   id="svg13452"
   version="1.1"
   inkscape:version="0.91 r">
  <defs
     id="defs13454" />
  <sodipodi:namedview
     id="base"
     pagecolor="#ffffff"
     bordercolor="#666666"
     borderopacity="1.0"
     inkscape:pageopacity="0.0"
     inkscape:pageshadow="2"
     inkscape:zoom="0.35"
     inkscape:cx="-694.76899"
     inkscape:cy="17.884377"
     inkscape:document-units="px"
     inkscape:current-layer="layer1"
     showgrid="false"
     fit-margin-top="0"
     fit-margin-left="0"
     fit-margin-right="0"
     fit-margin-bottom="0"
     inkscape:window-width="1855"
     inkscape:window-height="1056"
     inkscape:window-x="65"
     inkscape:window-y="24"
     inkscape:window-maximized="1"
     units="px" />
  <metadata
     id="metadata13457">
    <rdf:RDF>
      <cc:Work
         rdf:about="">
        <dc:format>image/svg+xml</dc:format>
        <dc:type
           rdf:resource="http://purl.org/dc/dcmitype/StillImage" />
        <dc:title></dc:title>
      </cc:Work>
    </rdf:RDF>
  </metadata>
  <g
     inkscape:label="Layer 1"
     inkscape:groupmode="layer"
     id="layer1"
     transform="translate(-359.76899,-150.24657)">
    <g
       style="fill:#000000;stroke:#000000"
       transform="matrix(1.2537704,0,0,1.2537704,475.45237,30.312546)"
       id="g9837">
      <path
         inkscape:connector-curvature="0"
         id="path9853"
         d="m 89.69743,310.74772 c -5.15625,-2.27174 -11.507025,-5.24184 -14.112826,-6.6002 l -4.737826,-2.46977 2.862826,-4.206 c 1.574553,-2.3133 4.954213,-5.8889 7.510351,-7.94577 5.837762,-4.69753 6.642225,-4.11921 13.241662,9.51948 5.586973,11.54627 7.123763,15.87024 5.632553,15.84796 -0.561965,-0.009 -5.24049,-1.87396 -10.39674,-4.1457 z m 21.78161,-0.0636 c 0.42038,-1.29227 1.37682,-8.04227 2.12542,-15 0.7486,-6.95773 1.55857,-12.86135 1.79994,-13.11917 1.34669,-1.43842 7.40048,-0.10437 9.62614,2.1213 l 2.59005,2.59005 -5.90177,9.7537 c -6.68789,11.05289 -11.46635,17.42468 -10.23978,13.65412 z"
         style="fill:#000000;stroke:#000000" />
      <path
         sodipodi:nodetypes="sscsssssscssccc"
         inkscape:connector-curvature="0"
         id="path9843"
         d="m 24.193616,176.88091 c -2.476492,-5.92708 -7.432043,-8.86756 -14.7562245,-8.75592 l -5.9899575,0.0913 0,-5.25115 c 0,-10.62538 7.17901,-20.11189 17.577526,-23.22737 6.33135,-1.89691 7.769026,-0.32528 6.445348,7.04591 -0.493832,2.75 -0.87025,11.60938 -0.836489,19.6875 0.03376,8.07813 -0.09931,14.6875 -0.295725,14.6875 -0.19641,0 -1.161425,-1.92499 -2.144478,-4.27777 z M 22.093597,127.6027 c 1.451673,-2.71248 7.796045,-7.70675 13.564072,-10.67761 l 4.085238,-2.10412 -5.737151,7.54386 c -4.743745,6.23761 -6.37861,7.54385 -9.441719,7.54385 -3.213326,0 -3.540916,-0.30578 -2.47044,-2.30598 z"
         style="fill:#000000;stroke:#000000" />
      <path
         sodipodi:nodetypes="sscssscccsscsssscssssscsssssssssssccsscsssscccscssccsccsssssscss"
         inkscape:connector-curvature="0"
         id="path9841"
         d="M 30.998236,369.16007 C 27.24493,368.15132 19.326465,365.01101 13.40165,362.18161 l -10.7723925,-5.14438 1.274595,-5.56998 C 5.5659837,344.20372 3.3902012,320.03737 -0.96323125,297.40868 -2.7488088,288.12743 -4.5083325,278.8343 -4.8732825,276.75727 l -0.6635438,-3.77642 17.8885813,-7.87664 17.888582,-7.87665 4.416047,2.64382 c 2.428825,1.4541 7.847498,4.38658 12.041496,6.51662 l 7.625449,3.87278 2.108823,8.94515 c 2.839817,12.04587 6.143009,17.41094 10.237715,16.62819 3.013408,-0.57605 3.043217,-0.51051 1.109819,2.44023 -3.833569,5.85076 -2.187685,8.01618 11.218231,14.75933 l 12.4255,6.25 -5.5505,0.27989 c -10.751108,0.54215 -39.322953,2.98968 -41.175487,3.52719 -1.596484,0.46322 -1.815986,-1.32318 -1.477715,-12.02628 0.286126,-9.05318 -0.06363,-13.12972 -1.25,-14.56965 -1.436756,-1.74381 -1.74443,-1.37385 -2.407404,2.89477 l -0.760117,4.89408 -0.177383,-5.9375 c -0.09756,-3.26562 -0.739881,-5.9375 -1.427381,-5.9375 -1.396717,0 -1.480194,1.08948 -1.259939,16.44384 0.0895,6.23881 -0.389186,11.15529 -1.130725,11.61359 -0.707254,0.43711 -3.071931,-0.12884 -5.254839,-1.25766 -4.284382,-2.21555 -4.160356,-2.51028 -1.602428,3.80786 0.494331,1.22101 -0.304011,2.25915 -2.329519,3.02925 -3.966719,1.50814 -5.238504,4.73351 -2.438503,6.18429 1.177524,0.61011 4.782857,1.49241 8.011849,1.96066 6.663121,0.96626 5.500233,-2.17645 8.938251,24.15567 1.910438,14.63224 2.495662,13.93933 -9.133341,10.81389 z m 76.854734,-23.48012 c -0.49664,-9.27279 -0.53286,-17.45848 -0.0805,-18.19044 0.45237,-0.73195 1.77367,-1.26558 2.93622,-1.18583 1.90563,0.13073 1.89837,0.20129 -0.0738,0.71667 -2.6146,0.68326 -3.19471,9.14933 -0.625,9.12127 3.69615,-0.0404 7.08818,-1.63899 7.5299,-3.54872 0.26197,-1.13257 0.87359,3.00328 1.35918,9.19078 0.48557,6.1875 1.12477,12.76543 1.42042,14.61763 0.56486,3.53871 0.2295,3.77329 -7.65524,5.35449 l -3.90823,0.78376 -0.90299,-16.85961 z m 40.28196,-4.09912 c 0.85937,-0.34676 2.26562,-0.34676 3.125,0 0.85937,0.34677 0.15625,0.63049 -1.5625,0.63049 -1.71875,0 -2.42188,-0.28372 -1.5625,-0.63049 z M 26.899504,329.02461 c 1.554891,-0.29899 3.804891,-0.28764 5,0.0253 1.19511,0.31286 -0.07708,0.5575 -2.827074,0.54362 -2.75,-0.0139 -3.727816,-0.26986 -2.172926,-0.56885 z m 85.297926,-9.99369 c 0,-0.21039 4.43645,-7.82899 9.85876,-16.93021 8.52933,-14.31626 9.64651,-16.85073 8.28479,-18.79486 -1.10556,-1.57842 -1.38643,-5.5365 -0.94378,-13.29997 0.48197,-8.4529 0.17605,-11.96315 -1.3005,-14.92297 -1.78558,-3.57929 -1.16376,-3.29266 8.27252,3.81306 5.61176,4.22579 10.37245,7.80474 10.57928,7.95323 1.789,1.28426 -13.20148,45.77847 -16.55775,49.14611 -1.42181,1.42661 -18.19332,4.22499 -18.19332,3.03561 z"
         style="fill:#000000;stroke:#000000" />
      <path
         inkscape:connector-curvature="0"
         id="path9839"
         d="m 67.193682,413.57988 c -15.480351,-1.64777 -15.099297,-1.30682 -20.380275,-18.2353 -2.541208,-8.146 -4.619388,-15.51402 -4.618178,-16.3734 0.0014,-0.97021 -1.774662,-1.56762 -4.685299,-1.57602 -2.578125,-0.007 -7.21875,-0.78495 -10.3125,-1.72778 -7.604044,-2.31736 -28.943845,-11.89422 -31.1591575,-13.98357 -1.166165,-1.09988 -1.9747313,-5.31365 -2.3343512,-12.1653 l -0.5501951,-10.48258 -6.9023122,-6.75112 c -12.633577,-12.35685 -24.951919,-34.13379 -29.722856,-52.54544 -7.021031,-27.09504 -3.208789,-60.41262 9.766087,-85.35197 5.341149,-10.26636 15.800057,-24.25057 23.8668287,-31.91142 2.4947763,-2.36924 4.5359563,-5.22027 4.5359563,-6.33563 0,-5.40919 4.31364625,-15.8448 7.99297,-19.33666 2.1848162,-2.0735 4.7295213,-5.61284 5.6548987,-7.86519 2.5314573,-6.16151 11.9979423,-13.90594 25.8293773,-21.13073 16.486766,-8.611802 27.763045,-11.649086 43.248604,-11.649086 20.8438,0 32.12006,3.778752 45.00609,15.081846 13.08305,11.47592 19.4137,23.59259 22.42542,42.92155 1.24968,8.02035 1.95853,9.38572 10.05874,19.375 10.11485,12.47375 19.81716,31.13907 23.77926,45.7466 2.2411,8.26249 2.71966,13.47504 2.75434,30 0.0499,23.78588 -1.49163,31.23103 -10.769,52.01114 l -3.68821,8.26114 2.98076,3.21631 c 1.63943,1.76896 4.55828,8.06391 6.48634,13.98878 3.91463,12.02956 3.75202,18.5442 -0.67974,27.23116 -3.04981,5.97812 -6.7383,7.4654 -18.49299,7.45676 -7.37969,-0.005 -9.61511,-0.45401 -10.8795,-2.18316 -1.28037,-1.75101 -2.93606,-2.06481 -8.47228,-1.6057 -6.05628,0.50224 -7.41147,1.14985 -11.30799,5.40386 -5.12385,5.59394 -5.06184,5.13493 -2.35673,17.44579 2.59383,11.80445 1.5302,14.91962 -5.7648,16.88396 -4.82121,1.29821 -5.05556,1.58953 -5.05556,6.28433 0,7.94392 -3.30055,9.22116 -26.875,10.40006 -5.5,0.27504 -14.220436,0.0509 -19.378748,-0.49823 z m 36.878748,-7.18776 3.75,-1.0665 -0.40324,-14.27096 c -0.56279,-19.91795 -3.71799,-63.80886 -4.65435,-64.74524 -1.48715,-1.48714 -40.028393,-0.76277 -51.50491,0.96803 -10.095531,1.52252 -11.5625,2.05723 -11.5625,4.21457 0,9.46696 7.229231,46.96841 12.403399,64.34229 l 2.636997,8.85455 9.042303,1.47255 c 4.973265,0.80991 9.886051,1.67657 10.917301,1.92592 3.068313,0.7419 25.32111,-0.54228 29.375,-1.69521 z m 16.57301,-15.76479 c 0.68313,-0.68312 -2.74525,-22.94082 -3.6745,-23.8556 -0.21919,-0.21575 -1.94539,-0.0951 -3.83601,0.26805 l -3.4375,0.66034 0,12.14595 c 0,6.68028 0.30941,12.45536 0.68757,12.83353 0.77317,0.77315 9.10067,-0.89249 10.26044,-2.05227 z M 39.145143,350.53952 36.6558,329.92036 32.559831,329.15195 c -2.252782,-0.42263 -5.505916,-0.41454 -7.229185,0.018 -4.183272,1.04993 -4.085732,-1.46097 0.11885,-3.05955 2.161342,-0.82174 2.99983,-1.85948 2.5,-3.09407 -2.557927,-6.31813 -2.681953,-6.02341 1.602429,-3.80786 2.182908,1.12883 4.547585,1.69478 5.254839,1.25766 0.741539,-0.4583 1.220219,-5.37477 1.130725,-11.61358 -0.220253,-15.35439 -0.136776,-16.44387 1.259941,-16.44387 0.763546,0 1.25,5.80874 1.25,14.92623 0,8.20942 0.490114,15.22914 1.089142,15.59936 0.599029,0.37021 5.809919,0.0956 11.579758,-0.61009 5.769837,-0.70576 17.19189,-1.6786 25.38234,-2.16185 l 14.891722,-0.87865 -12.408975,-6.25 c -13.387925,-6.74306 -15.03352,-8.91128 -11.201731,-14.75933 1.933398,-2.95074 1.903589,-3.01628 -1.109819,-2.44023 -4.08583,0.78105 -7.396883,-4.57801 -10.21559,-16.53434 l -2.086698,-8.8513 -10.426422,-5.46203 C 36.742254,261.21518 31.948159,257.66653 28.453942,253.5226 l -5.060792,-6.0018 -5.91036,2.52548 c -3.250699,1.38903 -11.25411,6.1505 -17.78536,10.58107 -18.536503,12.57448 -16.960163,10.13513 -13.230683,20.47412 6.7165105,18.61974 10.726438,39.0271 12.67934425,64.52785 l 0.7731475,10.09564 12.12165025,5.79904 c 11.041578,5.28232 22.807962,9.34182 27.687568,9.55242 1.683317,0.0726 1.615159,-2.32701 -0.583314,-20.5369 z m 79.617267,9.81583 c 1.47878,-0.41644 2.01151,-1.50245 1.64041,-3.34419 -0.30226,-1.50011 -0.8784,-7.36038 -1.2803,-13.02281 -1.19343,-16.81452 -1.55683,-17.82967 -6.38256,-17.82967 -2.27974,0 -4.51511,0.59888 -4.96748,1.33083 -0.45237,0.73196 -0.41615,8.91765 0.0805,18.19044 l 0.90299,16.85961 3.90824,-0.78376 c 2.14953,-0.43107 4.89372,-1.06128 6.09821,-1.40045 z m 49.68417,-5.31529 c 1.71827,-1.2512 3.92035,-4.36689 4.89351,-6.92375 1.56692,-4.11694 1.51326,-5.74635 -0.46885,-14.24074 -2.6836,-11.50055 -4.71825,-15.78315 -8.75525,-18.42829 -2.85462,-1.87042 -3.62845,-1.74451 -13.41149,2.18214 -16.46662,6.60926 -15.56058,5.56108 -13.78034,15.94259 0.8378,4.88569 1.52327,10.51412 1.52327,12.50764 0,6.74747 0.44836,7.00242 11.57957,6.58423 7.38634,-0.27748 9.76563,-0.0204 8.42043,0.90988 -1.03125,0.71315 -3.10743,1.30526 -4.61373,1.31579 -3.18446,0.0223 -4.87424,1.98607 -2.58156,3.0002 2.91228,1.2882 14.04587,-0.55702 17.19444,-2.84969 z M 154.3995,341.52461 c 1.55489,-0.29899 3.80489,-0.28764 5,0.0253 1.19512,0.31286 -0.0771,0.5575 -2.82707,0.54362 -2.75,-0.0139 -3.72781,-0.26986 -2.17293,-0.56885 z m -2.5,-8.75 c 1.55489,-0.29899 3.80489,-0.28764 5,0.0253 1.19512,0.31286 -0.0771,0.5575 -2.82707,0.54362 -2.75,-0.0139 -3.72781,-0.26986 -2.17293,-0.56885 z m -4.8761,-5.40751 c 1.62305,-1.35213 3.87305,-2.4547 5,-2.45018 1.33367,0.005 0.73983,0.87529 -1.70097,2.49176 -4.82314,3.19424 -7.14799,3.16493 -3.29903,-0.0416 z m -11.78328,26.15002 c 1.43626,-1.31465 -0.94739,-20.38556 -3.15303,-25.22641 -1.17233,-2.573 -2.43065,-3.38203 -5.26021,-3.38203 -4.19397,0 -4.12666,-1.96231 -0.73924,21.55067 1.37968,9.57673 1.42762,9.66773 4.68936,8.90111 1.81249,-0.426 3.82089,-1.2555 4.46312,-1.84334 z M -9.7774125,317.67866 c -0.9858585,-5.681 -3.9802165,-16.36265 -6.6541305,-23.73703 -7.796608,-21.50223 -8.094753,-22.69138 -6.450445,-25.72753 0.798408,-1.47423 10.705398,-8.22509 22.01553425,-15.00192 C 10.443683,246.43535 19.69743,240.11968 19.69743,239.17737 c 0,-0.94231 -1.37665,-4.67889 -3.059221,-8.3035 -1.682573,-3.6246 -3.371038,-7.99644 -3.752145,-9.71519 -0.471603,-2.12686 -2.386129,-3.9235 -5.994089,-5.625 -13.3116688,-6.2777 -19.777814,-27.16919 -12.6658675,-40.92218 1.186755,-2.29493 1.4238837,-4.20629 0.6855275,-5.52566 -0.9255475,-1.65386 -2.4145987,-0.46708 -8.268928,6.59038 -18.448124,22.2394 -27.058032,45.65431 -27.101595,73.70361 -0.03303,21.26574 4.596382,38.80435 15.078261,57.12432 4.851818,8.47988 16.032602,22.86666 17.0107845,21.88847 0.211695,-0.21169 -0.4217112,-5.03297 -1.40757,-10.71396 z M 130.3751,315.99531 c 4.06054,-4.11201 16.81295,-43.32166 16.8185,-51.71163 0.002,-3.09048 -1.74016,-5.34381 -9.90628,-12.8125 -5.44981,-4.98437 -10.41396,-9.0625 -11.03143,-9.0625 -0.61747,0 -2.37871,1.33699 -3.91387,2.97109 l -2.7912,2.9711 3.04945,0.76536 c 5.28847,1.32732 7.51981,8.21159 6.79302,20.9583 -0.43924,7.70363 -0.1562,11.65528 0.94769,13.23132 1.36172,1.94413 0.24454,4.4786 -8.28479,18.79486 -5.42231,9.10122 -9.85876,16.71982 -9.85876,16.93021 0,1.1909 16.76945,-1.60955 18.17767,-3.03561 z m -28.86885,-2.64913 c -1.43587,-4.6977 -10.344708,-22.62355 -12.76587,-25.68671 l -2.2718,-2.87421 -5.881463,4.49082 c -4.943189,3.77442 -9.639687,9.82915 -9.639687,12.42753 0,1.32082 26.766238,13.95216 30.39674,14.34462 0.56195,0.0607 0.63488,-1.15517 0.16209,-2.70205 z m 53.56369,-4.12703 c 4.34955,-0.78902 5.1085,-1.57805 9.05409,-9.41294 16.01197,-31.79553 15.44605,-72.19376 -1.44876,-103.41848 -4.23232,-7.82209 -13.15913,-20.671 -15.26579,-21.97299 -0.60136,-0.37166 -1.44196,4.23495 -1.868,10.23693 -0.93666,13.19578 -5.66436,32.51877 -10.09599,41.26415 -1.78644,3.52536 -3.24806,7.4341 -3.24806,8.68606 0,1.26055 4.74125,6.61557 10.625,12.00044 9.76025,8.93269 10.625,10.11038 10.625,14.47005 0,3.61795 -11.07131,40.89385 -15.82594,53.28421 -0.49266,1.28387 1.18903,0.93493 6.00839,-1.24668 3.6809,-1.66625 8.82892,-3.4171 11.44006,-3.89075 z m -44.59433,-14.31047 0.69508,-13.125 -4.91362,-2.19585 c -3.3079,-1.47826 -6.305927,-1.9314 -9.17414,-1.38661 -6.776487,1.28714 -7.76605,2.6621 -4.856587,6.74806 1.374387,1.93017 5.376387,9.60127 8.893327,17.04689 6.17934,13.08214 6.43255,13.41138 7.52764,9.78751 0.62326,-2.0625 1.446,-9.65625 1.8283,-16.875 z m -6.22883,4.13269 c -1.40772,-1.40774 -0.85736,-2.88269 1.07565,-2.88269 1.03125,0 1.875,0.5293 1.875,1.17623 0,1.57622 -1.95199,2.70512 -2.95065,1.70646 z m -2.43204,-11.18204 c -0.99866,-0.99866 0.13024,-2.95065 1.70647,-2.95065 0.64692,0 1.17622,0.84375 1.17622,1.875 0,1.93302 -1.47495,2.48338 -2.88269,1.07565 z m 20.3005,9.65034 6.3616,-10.72599 -3.20941,-2.8125 c -3.23309,-2.83325 -6.19884,-3.45207 -9.84276,-2.05376 -1.44688,0.55521 -1.97918,2.48314 -1.98448,7.1875 -0.008,6.1405 -1.57345,18.00595 -3.1339,23.73721 -1.19507,4.3893 4.4893,-2.99115 11.80895,-15.33246 z m -46.802341,-9.84019 c 6.276531,-3.16865 14.153768,-9.50511 14.820969,-11.922 0.46275,-1.67623 -0.428413,-2.73228 -3.34015,-3.95822 l -3.971288,-1.67204 3.4375,-0.86477 c 1.890625,-0.47564 3.4375,-1.25764 3.4375,-1.73779 0,-1.2106 -15.696165,-8.45845 -22.338919,-10.31519 -4.931792,-1.3785 -5.631777,-1.29767 -7.1875,0.8299 -3.507609,4.79694 -1.146043,25.75575 3.555477,31.55473 1.411988,1.74158 5.770932,1.02128 11.586411,-1.91462 z m 50.146141,-12.2351 c 1.04117,-4.14828 -0.4281,-16.74268 -2.20263,-18.88087 -2.14193,-2.58086 -6.13766,-1.93468 -13.24648,2.14219 -7.03839,4.03647 -8.25966,6.86137 -3.75,8.67403 2.15488,0.86615 2.30101,1.14902 0.625,1.20972 -1.56724,0.0567 -2.1875,1.11703 -2.1875,3.73928 0,3.53058 0.25428,3.68808 7.1875,4.45193 3.95313,0.43552 8.03125,0.97325 9.0625,1.19495 1.03125,0.22169 2.28616,0.46832 2.78869,0.54807 0.50252,0.0797 1.27784,-1.30593 1.72292,-3.0793 z m -26.01161,-2.0257 c 3.55462,-3.55462 0.0775,-9.40718 -4.690012,-7.89403 -2.897038,0.91948 -3.059263,1.66808 -1.340925,6.18766 1.312887,3.45315 3.628887,4.10842 6.030937,1.70637 z m -44.75,-12.80683 c 0,-2.51978 -0.794964,-3.02153 -5.9375,-3.74744 -3.265625,-0.46096 -6.921875,-1.12524 -8.125,-1.47616 -3.905691,-1.13919 -2.416908,3.0976 1.866907,5.31285 4.919994,2.54422 9.987006,4.04808 11.258093,3.34132 0.515625,-0.2867 0.9375,-1.83046 0.9375,-3.43057 z m 48.125,-2.63047 3.75,-3.17487 -4.375,0.86431 c -2.40625,0.47536 -7.46875,1.2499 -11.25,1.72118 -6.347925,0.79117 -6.635425,0.96272 -3.75,2.23755 5.51265,2.43557 11.554225,1.7983 15.625,-1.64817 z m -43.823588,-4.97745 c 1.334527,-1.00938 4.428277,-1.83735 6.875,-1.83992 l 4.448588,-0.005 -3.75,-2.28834 c -7.106491,-4.33656 -22.227205,-22.76677 -20.277863,-24.71611 0.292314,-0.29231 2.087122,1.71331 3.988462,4.45694 8.959485,12.92855 23.363077,22.35856 35.885239,23.49403 13.863362,1.25708 30.463142,-7.06022 39.228372,-19.65535 12.20445,-17.53675 17.63116,-39.22593 16.48056,-65.8683 -0.75638,-17.51426 -2.66908,-22.98609 -9.67977,-27.69178 -3.30994,-2.22169 -5.51614,-2.78719 -9.0625,-2.32294 -2.57813,0.3375 -4.6875,0.19184 -4.6875,-0.32369 0,-2.04195 4.59496,-4.90121 8.50057,-5.28956 l 4.12558,-0.41023 -6.04515,-7.5 c -10.60099,-13.15226 -23.9598,-19.27701 -44.274662,-20.29905 -11.661668,-0.58669 -12.333299,-0.47269 -19.915758,3.38044 -11.061115,5.62085 -17.092509,9.99958 -24.107672,17.5019 -5.897487,6.30704 -6.066988,6.69831 -5.306223,12.24869 0.458703,3.3466 -0.07284,10.88794 -1.276786,18.11464 -1.78371,10.70673 -1.840904,13.55634 -0.422917,21.07138 1.795803,9.51739 1.359129,10.66152 -4.317378,11.31199 -3.174174,0.36373 -3.79767,-0.0878 -4.652401,-3.36911 -2.422608,-9.30042 -11.1681405,-12.23654 -18.3778568,-6.16997 -6.7918112,5.71493 -7.6339725,13.12475 -2.6236187,23.08409 4.8534737,9.64751 11.4800755,12.82235 18.1539585,8.69767 5.545955,-3.42759 6.842919,-2.32363 3.145489,2.67742 -3.435166,4.64631 -2.967635,8.60765 2.598797,22.01934 6.069632,14.62407 9.966638,18.11691 22.550065,20.21131 9.369254,1.55944 10.086008,1.53029 12.797375,-0.52049 z m 29.5721,-20.91617 c -3.709837,-1.90848 -13.336893,-13.12236 -12.222323,-14.23693 0.44759,-0.44759 1.996348,0.68956 3.441674,2.527 4.309637,5.4788 9.509712,7.36843 22.087817,8.02635 6.36312,0.33283 11.56932,1.03598 11.56932,1.56254 0,3.33585 -19.31395,4.9826 -24.876488,2.12104 z m 4.876488,-12.92168 c -3.961425,-1.05911 -8.19935,-3.21591 -10,-5.08928 -2.686962,-2.79548 -2.774575,-3.11708 -0.625,-2.29435 1.375,0.52628 7.84375,1.41991 14.375,1.98586 6.53125,0.56594 12.01562,1.0563 12.1875,1.08968 0.17187,0.0334 0.3125,1.46694 0.3125,3.18569 0,2.7924 -0.4989,3.11625 -4.6875,3.04274 -2.57813,-0.0453 -7.78125,-0.9094 -11.5625,-1.92034 z m 20,-1.83465 c 0,-2.65034 0.60464,-3.66612 2.1875,-3.67496 1.20312,-0.007 5.22237,-1.42496 8.93168,-3.15166 3.70928,-1.7267 6.96678,-2.91684 7.23886,-2.64475 0.77861,0.77861 -5.85138,8.2171 -8.6671,9.72403 -1.39668,0.74748 -4.1485,1.82053 -6.11518,2.38457 -3.35412,0.96195 -3.57576,0.79849 -3.57576,-2.63723 z M 95.969067,206.19912 c -0.805275,-1.50468 -1.11095,-3.65619 -0.679274,-4.78112 0.651412,-1.69758 1.044562,-1.52157 2.312262,1.03517 2.17095,4.37848 7.682185,4.54103 17.280025,0.50967 12.30699,-5.16928 12.62449,-7.21071 2.97826,-19.14965 -7.39342,-9.15069 -11.86145,-17.69101 -11.85215,-22.65451 0.005,-2.47097 0.8206,-1.62335 3.89879,4.05003 2.14111,3.94626 7.55636,11.45141 12.0339,16.67811 7.82756,9.13724 8.09749,9.67455 7.01126,13.95671 -0.95957,3.7829 -2.25921,5.02781 -8.62971,8.26629 -5.22485,2.65609 -9.83417,3.96623 -15.1946,4.31888 -6.908525,0.45449 -7.844188,0.22672 -9.158763,-2.22958 z M 7.5384763,190.78052 c 0.2482187,-6.34037 0.011375,-7.18168 -1.8818613,-6.68519 -1.78562,0.46826 -1.9424725,0.15064 -0.89352,-1.80934 3.0239088,-5.65023 13.737467,0.0493 13.634288,7.25338 l -0.05005,3.49431 -1.864875,-3.4375 c -2.796002,-5.15383 -6.4882173,-4.53481 -7.455756,1.25 -1.2819725,7.66478 -1.7899887,7.64237 -1.4882287,-0.0657 z M 72.17236,175.50348 c -2.299709,-2.77098 -0.7005,-3.61141 6.177357,-3.24636 3.351663,0.17789 6.453563,-0.25844 6.8931,-0.96963 0.439538,-0.71118 -0.347112,-3.53995 -1.748112,-6.28614 -1.401,-2.74619 -2.522412,-5.7186 -2.492025,-6.60537 0.03038,-0.88676 1.11725,0.39656 2.41525,2.85182 1.298013,2.45526 3.2419,5.19601 4.319763,6.09056 2.715075,2.25332 2.456012,7.21677 -0.458088,8.77634 -3.711475,1.98633 -13.272513,1.59949 -15.107245,-0.61122 z m 52.77507,-2.0948 c -2.51699,-2.51698 -1.73475,-3.31161 4.125,-4.19033 3.09375,-0.46394 5.625,-0.99019 5.625,-1.16944 0,-0.17925 -0.84375,-2.71735 -1.875,-5.64023 -1.03125,-2.92287 -1.84846,-5.94672 -1.81603,-6.71965 0.077,-1.83534 7.30493,11.84387 7.38205,13.97094 0.0584,1.6101 -7.06526,5.24871 -10.27587,5.24871 -0.91584,0 -2.34015,-0.675 -3.16515,-1.5 z M 52.239342,148.44209 c -0.107014,-8.53204 15.694394,-18.5471 20.958088,-13.28341 2.440503,2.44051 1.740606,3.5 -2.312075,3.5 -5.262409,0 -10.1615,2.78833 -14.73282,8.38521 -3.857174,4.72252 -3.871431,4.72762 -3.913193,1.3982 z M 27.806539,179.9344 c 0.416158,-0.67336 0.06406,-3.53597 -0.782447,-6.36134 -1.219545,-4.07048 -1.218011,-8.06425 0.0074,-19.23557 0.850565,-7.75418 1.167439,-15.60874 0.704163,-17.45458 -0.751266,-2.99329 -1.26503,-3.26959 -4.752764,-2.55606 -6.943001,1.42042 -14.5202835,5.72876 -17.9241085,10.19141 -2.8261888,3.70532 -3.402085,5.90439 -3.8672638,14.76722 L 0.64492875,169.69904 7.98368,169.09988 c 9.02388,-0.73675 15.086126,2.35818 16.276394,8.30952 0.756617,3.78309 2.154026,4.77801 3.546465,2.525 z m -3.79399,-49.86513 c 4.154272,-0.66062 5.79799,-1.91473 10.333013,-7.88381 2.966092,-3.90403 7.393589,-8.33473 9.838882,-9.846 6.463956,-3.99495 3.622697,-5.62733 -4.335124,-2.49065 -10.622497,4.187 -21.584814,12.04491 -26.569591,19.04539 l -2.790275,3.91858 4.291487,-0.97896 c 2.360319,-0.53843 6.514543,-1.33248 9.231608,-1.76455 z"
         style="fill:#000000;stroke:#000000" />
    </g>
  </g>
</svg>
