<?xml version="1.0" encoding="UTF-8" standalone="no"?>
<!-- Created with Inkscape (http://www.inkscape.org/) -->

<svg
   xmlns:dc="http://purl.org/dc/elements/1.1/"
   xmlns:cc="http://creativecommons.org/ns#"
   xmlns:rdf="http://www.w3.org/1999/02/22-rdf-syntax-ns#"
   xmlns:svg="http://www.w3.org/2000/svg"
   xmlns="http://www.w3.org/2000/svg"
   xmlns:sodipodi="http://sodipodi.sourceforge.net/DTD/sodipodi-0.dtd"
   xmlns:inkscape="http://www.inkscape.org/namespaces/inkscape"
   width="400"
   height="400"
   viewBox="0 0 400.00001 399.99999"
   id="svg13452"
   version="1.1"
   inkscape:version="0.91 r">
  <defs
     id="defs13454">
    <clipPath
       clipPathUnits="userSpaceOnUse"
       id="clipPath8710">
      <rect
         style="opacity:1;fill:#ffffff;fill-opacity:1;fill-rule:nonzero;stroke:#ffffff;stroke-width:0.37413713;stroke-linecap:round;stroke-linejoin:round;stroke-miterlimit:4;stroke-dasharray:none;stroke-opacity:1"
         id="rect8712"
         width="411.53702"
         height="285.67203"
         x="1.7830619"
         y="0.1870763" />
    </clipPath>
    <filter
       style="color-interpolation-filters:sRGB"
       inkscape:label="Greyscale"
       id="filter8495">
      <feColorMatrix
         values="0.5 0.7 0 -0.1 0 0.5 0.7 0 -0.1 0 0.5 0.7 0 -0.1 0 0 0 0 1 0 "
         id="feColorMatrix8497" />
    </filter>
  </defs>
  <sodipodi:namedview
     id="base"
     pagecolor="#ffffff"
     bordercolor="#666666"
     borderopacity="1.0"
     inkscape:pageopacity="0.0"
     inkscape:pageshadow="2"
     inkscape:zoom="0.35"
     inkscape:cx="-694.76899"
     inkscape:cy="17.884377"
     inkscape:document-units="px"
     inkscape:current-layer="layer1"
     showgrid="false"
     fit-margin-top="0"
     fit-margin-left="0"
     fit-margin-right="0"
     fit-margin-bottom="0"
     inkscape:window-width="1855"
     inkscape:window-height="1056"
     inkscape:window-x="65"
     inkscape:window-y="24"
     inkscape:window-maximized="1"
     units="px" />
  <metadata
     id="metadata13457">
    <rdf:RDF>
      <cc:Work
         rdf:about="">
        <dc:format>image/svg+xml</dc:format>
        <dc:type
           rdf:resource="http://purl.org/dc/dcmitype/StillImage" />
        <dc:title></dc:title>
      </cc:Work>
    </rdf:RDF>
  </metadata>
  <g
     inkscape:label="Layer 1"
     inkscape:groupmode="layer"
     id="layer1"
     transform="translate(-359.76899,-150.24657)">
    <g
       id="g7319"
       transform="matrix(1.3512372,0,0,1.3512372,-195.5726,469.18967)">
      <path
         id="path7284"
         d="m 558.7,59.98717 c -4,0 -7.9,-1 -11.4,-3 l -36.2,-21.4 c -5.4,-3 -2.8,-4.1 -1,-4.7 7.2,-2.5 8.7,-3.1 16.4,-7.4 0.8,-0.5 1.9,-0.3 2.7,0.2 l 27.8,16.5 c 1,0.6 2.4,0.6 3.4,0 l 108.5,-62.6 c 1,-0.6 1.7,-1.7 1.7,-2.9 l 0,-125.3 c 0,-1.2 -0.6,-2.4 -1.7,-3 l -108.4,-62.5 c -1,-0.6 -2.3,-0.6 -3.3,0 l -108.4,62.6 c -1.1,0.6 -1.7,1.8 -1.7,3 l 0,125.2 c 0,1.2 0.7,2.3 1.7,2.9 l 29.7,17.2 c 16.1,8.1 26,-1.4 26,-11 l 0,-123.7 c 0,-1.7 1.4,-3.1 3.2,-3.1 l 13.8,0 c 1.7,0 3.1,1.4 3.1,3.1 l 0,123.6 c 0,21.5 -11.7,33.9 -32.1,33.9 -6.3,0 -11.2,0 -25,-6.8 l -28.4,-16.4 c -7,-4.1 -11.4,-11.7 -11.4,-19.8 l 0,-125.2 c 0,-8.1 4.4,-15.7 11.4,-19.8 l 108.5,-62.7 c 6.9,-3.9 16,-3.9 22.8,0 l 108.5,62.7 c 7,4.1 11.4,11.6 11.4,19.8 l 0,125.2 c 0,8.1 -4.4,15.7 -11.4,19.8 l -108.5,62.6 c -3.7,2 -7.7,3 -11.7,3 z"
         inkscape:connector-curvature="0"
         style="fill:#000000" />
      <path
         id="path7286"
         d="m 592.2,-26.21283 c -47.5,0 -57.4,-21.8 -57.4,-40.1 0,-1.7 1.4,-3.1 3.1,-3.1 l 14,0 c 1.6,0 2.9,1.1 3.1,2.7 2.1,14.3 8.4,21.5 37.1,21.5 22.9,0 32.6,-5.2 32.6,-17.3 0,-7 -2.8,-12.2 -38.3,-15.7 -29.7,-2.9 -48,-9.5 -48,-33.2 0,-21.9 18.4,-34.9 49.4,-34.9 34.7,0 51.9,12.1 54.1,37.9 0.1,0.9 -0.2,1.7 -0.8,2.4 -0.6,0.6 -1.4,1 -2.3,1 l -14.1,0 c -1.5,0 -2.7,-1 -3,-2.4 -3.4,-15 -11.6,-19.8 -33.9,-19.8 -24.9,0 -27.8,8.7 -27.8,15.2 0,7.9 3.4,10.2 37.1,14.6 33.3,4.4 49.2,10.6 49.2,34.1 0,23.6 -19.7,37.1 -54.1,37.1 z"
         inkscape:connector-curvature="0"
         style="fill:#000000" />
    </g>
  </g>
</svg>
