<?xml version="1.0" encoding="UTF-8" standalone="no"?>
<!-- Created with Inkscape (http://www.inkscape.org/) -->

<svg
   xmlns:dc="http://purl.org/dc/elements/1.1/"
   xmlns:cc="http://creativecommons.org/ns#"
   xmlns:rdf="http://www.w3.org/1999/02/22-rdf-syntax-ns#"
   xmlns:svg="http://www.w3.org/2000/svg"
   xmlns="http://www.w3.org/2000/svg"
   xmlns:sodipodi="http://sodipodi.sourceforge.net/DTD/sodipodi-0.dtd"
   xmlns:inkscape="http://www.inkscape.org/namespaces/inkscape"
   width="400"
   height="400"
   viewBox="0 0 400.00001 399.99999"
   id="svg13452"
   version="1.1"
   inkscape:version="0.91 r">
  <defs
     id="defs13454">
    <clipPath
       clipPathUnits="userSpaceOnUse"
       id="clipPath8710">
      <rect
         style="opacity:1;fill:#ffffff;fill-opacity:1;fill-rule:nonzero;stroke:#ffffff;stroke-width:0.37413713;stroke-linecap:round;stroke-linejoin:round;stroke-miterlimit:4;stroke-dasharray:none;stroke-opacity:1"
         id="rect8712"
         width="411.53702"
         height="285.67203"
         x="1.7830619"
         y="0.1870763" />
    </clipPath>
    <filter
       style="color-interpolation-filters:sRGB"
       inkscape:label="Greyscale"
       id="filter8495">
      <feColorMatrix
         values="0.5 0.7 0 -0.1 0 0.5 0.7 0 -0.1 0 0.5 0.7 0 -0.1 0 0 0 0 1 0 "
         id="feColorMatrix8497" />
    </filter>
  </defs>
  <sodipodi:namedview
     id="base"
     pagecolor="#ffffff"
     bordercolor="#666666"
     borderopacity="1.0"
     inkscape:pageopacity="0.0"
     inkscape:pageshadow="2"
     inkscape:zoom="0.35"
     inkscape:cx="-694.76899"
     inkscape:cy="17.884377"
     inkscape:document-units="px"
     inkscape:current-layer="layer1"
     showgrid="false"
     fit-margin-top="0"
     fit-margin-left="0"
     fit-margin-right="0"
     fit-margin-bottom="0"
     inkscape:window-width="1855"
     inkscape:window-height="1056"
     inkscape:window-x="65"
     inkscape:window-y="24"
     inkscape:window-maximized="1"
     units="px" />
  <metadata
     id="metadata13457">
    <rdf:RDF>
      <cc:Work
         rdf:about="">
        <dc:format>image/svg+xml</dc:format>
        <dc:type
           rdf:resource="http://purl.org/dc/dcmitype/StillImage" />
        <dc:title></dc:title>
      </cc:Work>
    </rdf:RDF>
  </metadata>
  <g
     inkscape:label="Layer 1"
     inkscape:groupmode="layer"
     id="layer1"
     transform="translate(-359.76899,-150.24657)">
    <g
       style="filter:url(#filter8495)"
       id="g8036"
       transform="matrix(0.97196603,0,0,0.97196603,358.03591,211.23298)"
       clip-path="url(#clipPath8710)">
      <polygon
         id="polygon8038"
         points="84.157,143 42.878,214.5 84.157,286 125.436,214.5 "
         style="fill:#303f9f" />
      <polygon
         id="polygon8040"
         points="331.842,0 290.561,71.5 331.842,143 373.121,71.5 "
         style="fill:#3f51b5" />
      <polygon
         id="polygon8042"
         points="373.121,71.5 249.278,286 331.842,286 414.4,143 "
         style="fill:#7986cb" />
      <polygon
         id="polygon8044"
         points="249.278,0 84.157,286 166.721,286 331.842,0 "
         style="fill:#ff4081" />
      <polygon
         id="polygon8046"
         points="84.157,0 1.596,143 42.878,214.5 166.721,0 "
         style="fill:#536dfe" />
      <polygon
         id="polygon8048"
         points="331.842,0 249.278,0 290.561,71.5 "
         style="fill:#ffffff;fill-opacity:0.2" />
      <polygon
         id="polygon8050"
         points="290.561,71.5 208,71.5 249.278,0 "
         style="fill:#ffffff;fill-opacity:0.1" />
      <polygon
         id="polygon8052"
         points="290.561,71.5 208,71.5 249.278,143 "
         style="fill:#ffffff;fill-opacity:0" />
      <polygon
         id="polygon8054"
         points="249.278,143 166.721,143 208,71.5 "
         style="fill-opacity:0.1" />
      <polygon
         id="polygon8056"
         points="249.278,143 166.721,143 208,214.5 "
         style="fill-opacity:0.2" />
      <polygon
         id="polygon8058"
         points="208,214.5 125.438,214.5 166.721,143 "
         style="fill-opacity:0.3" />
      <polygon
         id="polygon8060"
         points="208,214.5 125.438,214.5 166.721,286 "
         style="fill-opacity:0.4" />
      <polygon
         id="polygon8062"
         points="166.721,286 84.157,286 125.438,214.5 "
         style="fill-opacity:0.5" />
      <polygon
         id="polygon8064"
         points="166.721,0 84.157,0 125.438,71.5 "
         style="fill:#ffffff;fill-opacity:0.2" />
      <polygon
         id="polygon8066"
         points="125.438,71.5 42.878,71.5 84.157,0 "
         style="fill:#ffffff;fill-opacity:0.1" />
      <polygon
         id="polygon8068"
         points="125.438,71.5 42.878,71.5 84.157,143 "
         style="fill:#ffffff;fill-opacity:0" />
      <polygon
         id="polygon8070"
         points="84.157,143 1.598,143 42.878,71.5 "
         style="fill-opacity:0.1" />
      <polygon
         id="polygon8072"
         points="84.157,143 1.598,143 42.878,214.5 "
         style="fill-opacity:0.2" />
      <polygon
         id="polygon8074"
         points="42.878,214.5 125.438,214.5 84.157,143 "
         style="fill:#ffffff;fill-opacity:0" />
      <polygon
         id="polygon8076"
         points="42.878,214.5 125.438,214.5 84.157,286 "
         style="fill-opacity:0.2" />
      <polygon
         id="polygon8078"
         points="290.561,71.5 373.121,71.5 331.842,0 "
         style="fill-opacity:0.2" />
      <polygon
         id="polygon8080"
         points="290.561,71.5 373.121,71.5 331.842,143 "
         style="fill:#ffffff;fill-opacity:0" />
      <g
         id="g8082">
        <polygon
           id="polygon8084"
           points="414.4,143 331.842,143 373.121,71.5 "
           style="fill:#ffffff;fill-opacity:0.2" />
        <polygon
           id="polygon8086"
           points="414.4,143 331.842,143 373.121,214.5 "
           style="fill:#ffffff;fill-opacity:0.1" />
        <polygon
           id="polygon8088"
           points="373.121,214.5 290.561,214.5 331.842,143 "
           style="fill:#ffffff;fill-opacity:0" />
        <polygon
           id="polygon8090"
           points="373.121,214.5 290.561,214.5 331.842,286 "
           style="fill-opacity:0.1" />
        <polygon
           id="polygon8092"
           points="331.842,286 249.278,286 290.561,214.5 "
           style="fill-opacity:0.2" />
      </g>
    </g>
  </g>
</svg>
