<?xml version="1.0" encoding="UTF-8" standalone="no"?>
<!-- Created with Inkscape (http://www.inkscape.org/) -->

<svg
   xmlns:dc="http://purl.org/dc/elements/1.1/"
   xmlns:cc="http://creativecommons.org/ns#"
   xmlns:rdf="http://www.w3.org/1999/02/22-rdf-syntax-ns#"
   xmlns:svg="http://www.w3.org/2000/svg"
   xmlns="http://www.w3.org/2000/svg"
   xmlns:sodipodi="http://sodipodi.sourceforge.net/DTD/sodipodi-0.dtd"
   xmlns:inkscape="http://www.inkscape.org/namespaces/inkscape"
   width="400"
   height="400"
   viewBox="0 0 400.00001 399.99999"
   id="svg13452"
   version="1.1"
   inkscape:version="0.91 r">
  <defs
     id="defs13454" />
  <sodipodi:namedview
     id="base"
     pagecolor="#ffffff"
     bordercolor="#666666"
     borderopacity="1.0"
     inkscape:pageopacity="0.0"
     inkscape:pageshadow="2"
     inkscape:zoom="0.35"
     inkscape:cx="-694.76899"
     inkscape:cy="17.884377"
     inkscape:document-units="px"
     inkscape:current-layer="layer1"
     showgrid="false"
     fit-margin-top="0"
     fit-margin-left="0"
     fit-margin-right="0"
     fit-margin-bottom="0"
     inkscape:window-width="1855"
     inkscape:window-height="1056"
     inkscape:window-x="65"
     inkscape:window-y="24"
     inkscape:window-maximized="1"
     units="px" />
  <metadata
     id="metadata13457">
    <rdf:RDF>
      <cc:Work
         rdf:about="">
        <dc:format>image/svg+xml</dc:format>
        <dc:type
           rdf:resource="http://purl.org/dc/dcmitype/StillImage" />
        <dc:title></dc:title>
      </cc:Work>
    </rdf:RDF>
  </metadata>
  <g
     inkscape:label="Layer 1"
     inkscape:groupmode="layer"
     id="layer1"
     transform="translate(-359.76899,-150.24657)">
    <g
       id="g7356"
       transform="matrix(0.71711319,0,0,0.71711319,330.29349,120.52295)"
       style="fill:#000000">
      <path
         id="path7358"
         d="m 536.118,226.774 c -10.868,-4.172 -22.399,-7.993 -34.498,-11.448 3.063,-12.221 5.524,-24.132 7.351,-35.644 10.412,-65.634 -1.262,-111.845 -32.869,-130.12 -9.309,-5.384 -19.979,-8.113 -31.711,-8.113 -35.281,0 -79.605,25.638 -124.39,69.05 -44.786,-43.412 -89.11,-69.05 -124.389,-69.05 -11.733,0 -22.401,2.729 -31.711,8.113 -31.609,18.277 -43.282,64.488 -32.871,130.12 1.826,11.512 4.288,23.422 7.35,35.643 -12.1,3.455 -23.632,7.276 -34.501,11.449 -61.96,23.786 -96.081,57.016 -96.081,93.57 0,36.554 34.121,69.784 96.079,93.569 10.869,4.173 22.4,7.994 34.5,11.449 -3.063,12.222 -5.525,24.135 -7.351,35.649 -10.41,65.629 1.263,111.84 32.872,130.116 9.31,5.383 19.98,8.114 31.711,8.114 35.281,0 79.604,-25.638 124.389,-69.05 44.784,43.412 89.107,69.05 124.387,69.05 11.735,0 22.406,-2.728 31.714,-8.114 31.608,-18.275 43.281,-64.486 32.873,-130.116 -1.826,-11.514 -4.288,-23.427 -7.351,-35.65 12.098,-3.454 23.628,-7.275 34.495,-11.447 61.96,-23.784 96.084,-57.015 96.084,-93.569 0.002,-36.555 -34.122,-69.785 -96.082,-93.571 z M 444.39,68.06 c 7.106,0 13.133,1.488 18.426,4.546 21.095,12.198 28.351,49.703 19.911,102.901 -1.7,10.72 -3.995,21.823 -6.844,33.223 -26.162,-5.998 -54.421,-10.427 -83.984,-13.169 -17.25,-24.362 -35.18,-46.518 -53.23,-65.962 C 378.008,91.274 416.088,68.06 444.39,68.06 Z M 191.376,351.613 c 5.644,10.938 11.612,21.877 17.889,32.766 6.3,10.929 12.782,21.566 19.401,31.894 -20.013,-2.502 -39.227,-5.836 -57.362,-9.949 5.509,-17.781 12.232,-36.107 20.072,-54.711 z m 0,-62.539 c -7.839,-18.604 -14.561,-36.929 -20.07,-54.709 18.134,-4.114 37.348,-7.447 57.361,-9.949 -6.621,10.33 -13.104,20.97 -19.407,31.902 -6.276,10.886 -12.242,21.821 -17.884,32.756 z m 14.103,31.271 c 8.109,-16.873 17.063,-33.846 26.791,-50.721 9.731,-16.879 20.002,-33.143 30.615,-48.618 18.599,-1.397 37.704,-2.114 57.11,-2.114 19.41,0 38.518,0.717 57.121,2.114 10.613,15.475 20.885,31.738 30.616,48.617 9.728,16.874 18.682,33.845 26.79,50.718 -8.11,16.877 -17.066,33.854 -26.796,50.733 -9.729,16.876 -19.999,33.136 -30.609,48.609 -18.603,1.397 -37.711,2.114 -57.121,2.114 -19.407,0 -38.512,-0.717 -57.112,-2.114 -10.611,-15.472 -20.88,-31.733 -30.609,-48.609 -9.73,-16.878 -18.686,-33.853 -26.796,-50.729 z m 225.256,64.034 c 6.278,-10.89 12.246,-21.83 17.891,-32.769 7.84,18.604 14.562,36.931 20.07,54.712 -18.135,4.114 -37.349,7.447 -57.362,9.95 6.619,-10.327 13.1,-20.964 19.401,-31.893 z m 17.89,-95.307 c -5.642,-10.935 -11.608,-21.869 -17.883,-32.754 -6.302,-10.932 -12.785,-21.571 -19.406,-31.901 20.012,2.503 39.224,5.836 57.357,9.949 -5.509,17.779 -12.23,36.103 -20.068,54.706 z M 320,148.828 c 12.428,13.486 24.847,28.338 36.993,44.309 -12.19,-0.565 -24.539,-0.856 -36.998,-0.856 -12.456,0 -24.801,0.29 -36.988,0.855 12.147,-15.97 24.565,-30.822 36.993,-44.308 z M 177.184,72.606 c 5.219,-3.016 11.419,-4.546 18.426,-4.546 28.301,0 66.38,23.214 105.72,61.539 -18.05,19.443 -35.979,41.599 -53.228,65.961 -29.565,2.742 -57.825,7.171 -83.988,13.169 -2.849,-11.4 -5.144,-22.502 -6.844,-33.222 -8.439,-53.196 -1.18,-90.702 19.914,-102.901 z m -31.643,327.137 c -11.284,-3.23 -22.033,-6.791 -32.154,-10.677 -50.217,-19.279 -79.019,-44.327 -79.019,-68.722 0,-24.395 28.802,-49.443 79.019,-68.722 10.121,-3.886 20.871,-7.447 32.155,-10.677 7.891,25.681 18.186,52.396 30.591,79.398 -12.405,27.003 -22.7,53.719 -30.592,79.4 z M 195.61,572.63 c -7.107,0 -13.134,-1.488 -18.426,-4.548 -21.096,-12.198 -28.354,-49.703 -19.917,-102.898 1.701,-10.721 3.996,-21.825 6.845,-33.226 26.163,5.999 54.423,10.428 83.988,13.17 17.249,24.362 35.179,46.519 53.229,65.963 -39.337,38.325 -77.417,61.539 -105.719,61.539 z m 87.395,-125.078 c 12.187,0.565 24.533,0.855 36.99,0.855 12.46,0 24.809,-0.29 36.999,-0.856 -12.147,15.972 -24.566,30.824 -36.995,44.312 -12.428,-13.487 -24.847,-28.339 -36.994,-44.311 z m 179.811,120.531 c -5.219,3.018 -11.42,4.548 -18.429,4.548 -28.3,0 -66.38,-23.214 -105.718,-61.539 18.051,-19.444 35.981,-41.601 53.231,-65.964 29.565,-2.742 57.825,-7.172 83.988,-13.171 2.849,11.402 5.144,22.506 6.844,33.228 8.438,53.195 1.179,90.7 -19.916,102.898 z m 63.792,-179.016 c -10.12,3.885 -20.867,7.446 -32.149,10.675 -7.892,-25.682 -18.187,-52.398 -30.592,-79.401 12.403,-27.001 22.698,-53.714 30.589,-79.394 11.283,3.229 22.032,6.791 32.152,10.676 50.222,19.279 79.023,44.327 79.023,68.722 0,24.395 -28.801,49.442 -79.023,68.722 z m -206.61,-12.702 c 30.892,0 55.938,-25.081 55.938,-56.021 0,-30.941 -25.046,-56.021 -55.938,-56.021 -30.891,0 -55.937,25.08 -55.937,56.021 0.001,30.941 25.047,56.021 55.937,56.021 z"
         inkscape:connector-curvature="0"
         style="fill:#000000" />
    </g>
  </g>
</svg>
