<?xml version="1.0" encoding="UTF-8" standalone="no"?>
<!-- Created with Inkscape (http://www.inkscape.org/) -->

<svg
   xmlns:dc="http://purl.org/dc/elements/1.1/"
   xmlns:cc="http://creativecommons.org/ns#"
   xmlns:rdf="http://www.w3.org/1999/02/22-rdf-syntax-ns#"
   xmlns:svg="http://www.w3.org/2000/svg"
   xmlns="http://www.w3.org/2000/svg"
   xmlns:sodipodi="http://sodipodi.sourceforge.net/DTD/sodipodi-0.dtd"
   xmlns:inkscape="http://www.inkscape.org/namespaces/inkscape"
   width="400"
   height="400"
   viewBox="0 0 400.00001 399.99999"
   id="svg13452"
   version="1.1"
   inkscape:version="0.91 r">
  <defs
     id="defs13454">
    <clipPath
       clipPathUnits="userSpaceOnUse"
       id="clipPath8710">
      <rect
         style="opacity:1;fill:#ffffff;fill-opacity:1;fill-rule:nonzero;stroke:#ffffff;stroke-width:0.37413713;stroke-linecap:round;stroke-linejoin:round;stroke-miterlimit:4;stroke-dasharray:none;stroke-opacity:1"
         id="rect8712"
         width="411.53702"
         height="285.67203"
         x="1.7830619"
         y="0.1870763" />
    </clipPath>
    <filter
       style="color-interpolation-filters:sRGB"
       inkscape:label="Greyscale"
       id="filter8495">
      <feColorMatrix
         values="0.5 0.7 0 -0.1 0 0.5 0.7 0 -0.1 0 0.5 0.7 0 -0.1 0 0 0 0 1 0 "
         id="feColorMatrix8497" />
    </filter>
  </defs>
  <sodipodi:namedview
     id="base"
     pagecolor="#ffffff"
     bordercolor="#666666"
     borderopacity="1.0"
     inkscape:pageopacity="0.0"
     inkscape:pageshadow="2"
     inkscape:zoom="0.35"
     inkscape:cx="-694.76899"
     inkscape:cy="17.884377"
     inkscape:document-units="px"
     inkscape:current-layer="layer1"
     showgrid="false"
     fit-margin-top="0"
     fit-margin-left="0"
     fit-margin-right="0"
     fit-margin-bottom="0"
     inkscape:window-width="1855"
     inkscape:window-height="1056"
     inkscape:window-x="65"
     inkscape:window-y="24"
     inkscape:window-maximized="1"
     units="px" />
  <metadata
     id="metadata13457">
    <rdf:RDF>
      <cc:Work
         rdf:about="">
        <dc:format>image/svg+xml</dc:format>
        <dc:type
           rdf:resource="http://purl.org/dc/dcmitype/StillImage" />
        <dc:title></dc:title>
      </cc:Work>
    </rdf:RDF>
  </metadata>
  <g
     inkscape:label="Layer 1"
     inkscape:groupmode="layer"
     id="layer1"
     transform="translate(-359.76899,-150.24657)">
    <g
       id="g6621"
       transform="matrix(2.4859853,0,0,2.3076644,1024.7154,-1285.0366)">
      <g
         transform="matrix(1.8,0,0,1.8,-277,618.36217)"
         id="stars">
        <path
           d="m 63.086,18.385 c 0,-7.227 -5.859,-13.086 -13.1,-13.086 -7.235,0 -13.096,5.859 -13.096,13.086 -5.1,-5.11 -13.395,-5.11 -18.497,0 -5.119,5.12 -5.119,13.408 0,18.524 -7.234,0 -13.103,5.859 -13.103,13.085 0,7.23 5.87,13.098 13.103,13.098 -5.119,5.11 -5.119,13.395 0,18.515 5.102,5.104 13.397,5.104 18.497,0 0,7.228 5.86,13.083 13.096,13.083 7.24,0 13.1,-5.855 13.1,-13.083 5.118,5.104 13.416,5.104 18.513,0 5.101,-5.12 5.101,-13.41 0,-18.515 7.216,0 13.081,-5.869 13.081,-13.098 0,-7.227 -5.865,-13.085 -13.081,-13.085 5.101,-5.119 5.101,-13.406 0,-18.524 -5.097,-5.11 -13.393,-5.11 -18.513,0 z"
           id="black-star"
           inkscape:connector-curvature="0" />
        <path
           d="m 55.003,23.405 0,14.488 L 65.26,27.64 c 0,-1.812 0.691,-3.618 2.066,-5.005 2.78,-2.771 7.275,-2.771 10.024,0 2.771,2.766 2.771,7.255 0,10.027 -1.377,1.375 -3.195,2.072 -5.015,2.072 l -10.234,10.248 14.489,0 c 1.29,-1.28 3.054,-2.076 5.011,-2.076 3.9,0 7.078,3.179 7.078,7.087 0,3.906 -3.178,7.088 -7.078,7.088 -1.957,0 -3.721,-0.798 -5.011,-2.072 l -14.49,0 10.229,10.244 c 1.824,0 3.642,0.694 5.015,2.086 2.774,2.759 2.774,7.25 0,10.01 -2.75,2.774 -7.239,2.774 -10.025,0 -1.372,-1.372 -2.064,-3.192 -2.064,-5.003 L 55,62.094 55,76.593 c 1.271,1.276 2.084,3.054 2.084,5.013 0,3.906 -3.177,7.077 -7.098,7.077 -3.919,0 -7.094,-3.167 -7.094,-7.077 0,-1.959 0.811,-3.732 2.081,-5.013 l 0,-14.499 -10.235,10.252 c 0,1.812 -0.705,3.627 -2.084,5.003 -2.769,2.772 -7.251,2.772 -10.024,0 -2.775,-2.764 -2.775,-7.253 0,-10.012 1.377,-1.39 3.214,-2.086 5.012,-2.086 l 10.257,-10.242 -14.485,0 c -1.289,1.276 -3.072,2.072 -5.015,2.072 -3.917,0 -7.096,-3.18 -7.096,-7.088 0,-3.908 3.177,-7.087 7.096,-7.087 1.94,0 3.725,0.796 5.015,2.076 l 14.488,0 -10.256,-10.246 c -1.797,0 -3.632,-0.697 -5.012,-2.071 -2.775,-2.772 -2.775,-7.26 0,-10.027 2.773,-2.771 7.256,-2.771 10.027,0 1.375,1.386 2.083,3.195 2.083,5.005 l 10.235,10.252 0,-14.488 c -1.27,-1.287 -2.082,-3.053 -2.082,-5.023 0,-3.908 3.175,-7.079 7.096,-7.079 3.919,0 7.097,3.168 7.097,7.079 -0.002,1.972 -0.816,3.735 -2.087,5.021 z"
           id="white-star"
           inkscape:connector-curvature="0"
           style="fill:#ffffff" />
      </g>
      <g
         transform="matrix(1.8,0,0,1.8,-277,618.36217)"
         id="svg-textbox">
        <path
           d="m 5.3,50 89.38,0 0,40 q 0,5 -5,5 L 10.3,95 q -5,0 -5,-5 z"
           id="text-backdrop"
           inkscape:connector-curvature="0"
           style="fill:#000000" />
        <path
           d="m 14.657,54.211 71.394,0 c 2.908,0 5.312,2.385 5.312,5.315 l 0,17.91 C 63.779,74.033 36.437,69.311 9.352,69.753 l 0,-10.227 c 10e-4,-2.93 2.391,-5.315 5.305,-5.315 l 0,0 z"
           id="shine"
           inkscape:connector-curvature="0"
           style="fill:#3f3f3f" />
        <g
           id="svg-text">
          <title
             id="title6563">SVG</title>
          <path
             d="m 18.312,72.927 c -2.103,-2.107 -3.407,-5.028 -3.407,-8.253 0,-6.445 5.223,-11.672 11.666,-11.672 6.446,0 11.667,5.225 11.667,11.672 l -6.832,0 c 0,-2.674 -2.168,-4.837 -4.835,-4.837 -2.663,0 -4.838,2.163 -4.838,4.837 0,1.338 0.549,2.536 1.415,3.42 l 0,0 c 0.883,0.874 2.101,1.405 3.423,1.405 l 0,0.012 c 3.232,0 6.145,1.309 8.243,3.416 l 0,0 c 2.118,2.111 3.424,5.034 3.424,8.248 0,6.454 -5.221,11.68 -11.667,11.68 -6.442,0 -11.666,-5.222 -11.666,-11.68 l 6.828,0 c 0,2.679 2.175,4.835 4.838,4.835 2.667,0 4.835,-2.156 4.835,-4.835 0,-1.329 -0.545,-2.527 -1.429,-3.407 l 0,0 C 29.113,76.888 27.895,76.35 26.571,76.35 l 0,0 c -3.23,0 -6.142,-1.314 -8.259,-3.423 l 0,0 0,0 z"
             id="S"
             inkscape:connector-curvature="0"
             style="fill:#ffffff;stroke:#000000;stroke-width:1.04127848" />
          <polygon
             points="53.344,92.854 46.494,92.854 38.236,53.005 45.082,53.005 49.92,76.342 54.755,53.005 61.588,53.005 "
             id="V"
             style="fill:#ffffff;stroke:#000000;stroke-width:1.04127848" />
          <path
             d="m 73.255,69.513 11.683,0 0,11.664 0,0 c 0,6.452 -5.226,11.678 -11.669,11.678 -6.441,0 -11.666,-5.226 -11.666,-11.678 l 0,0 0,-16.501 -0.017,0 C 61.586,58.229 66.827,53 73.253,53 c 6.459,0 11.683,5.225 11.683,11.676 l -6.849,0 c 0,-2.674 -2.152,-4.837 -4.834,-4.837 -2.647,0 -4.82,2.163 -4.82,4.837 l 0,16.501 0,0 c 0,2.675 2.173,4.837 4.82,4.837 2.682,0 4.834,-2.162 4.834,-4.827 l 0,-0.012 0,-4.827 -4.834,0 0.002,-6.835 0,0 z"
             id="G"
             inkscape:connector-curvature="0"
             style="fill:#ffffff;stroke:#000000;stroke-width:1.04127848" />
        </g>
      </g>
    </g>
  </g>
</svg>
