<?xml version="1.0" encoding="UTF-8" standalone="no"?>
<!-- Created with Inkscape (http://www.inkscape.org/) -->

<svg
   xmlns:dc="http://purl.org/dc/elements/1.1/"
   xmlns:cc="http://creativecommons.org/ns#"
   xmlns:rdf="http://www.w3.org/1999/02/22-rdf-syntax-ns#"
   xmlns:svg="http://www.w3.org/2000/svg"
   xmlns="http://www.w3.org/2000/svg"
   xmlns:sodipodi="http://sodipodi.sourceforge.net/DTD/sodipodi-0.dtd"
   xmlns:inkscape="http://www.inkscape.org/namespaces/inkscape"
   width="400"
   height="400"
   viewBox="0 0 400.00001 399.99999"
   id="svg13452"
   version="1.1"
   inkscape:version="0.91 r">
  <defs
     id="defs13454">
    <clipPath
       clipPathUnits="userSpaceOnUse"
       id="clipPath8710">
      <rect
         style="opacity:1;fill:#ffffff;fill-opacity:1;fill-rule:nonzero;stroke:#ffffff;stroke-width:0.37413713;stroke-linecap:round;stroke-linejoin:round;stroke-miterlimit:4;stroke-dasharray:none;stroke-opacity:1"
         id="rect8712"
         width="411.53702"
         height="285.67203"
         x="1.7830619"
         y="0.1870763" />
    </clipPath>
    <filter
       style="color-interpolation-filters:sRGB"
       inkscape:label="Greyscale"
       id="filter8495">
      <feColorMatrix
         values="0.5 0.7 0 -0.1 0 0.5 0.7 0 -0.1 0 0.5 0.7 0 -0.1 0 0 0 0 1 0 "
         id="feColorMatrix8497" />
    </filter>
  </defs>
  <sodipodi:namedview
     id="base"
     pagecolor="#ffffff"
     bordercolor="#666666"
     borderopacity="1.0"
     inkscape:pageopacity="0.0"
     inkscape:pageshadow="2"
     inkscape:zoom="0.35"
     inkscape:cx="-694.76899"
     inkscape:cy="17.884377"
     inkscape:document-units="px"
     inkscape:current-layer="layer1"
     showgrid="false"
     fit-margin-top="0"
     fit-margin-left="0"
     fit-margin-right="0"
     fit-margin-bottom="0"
     inkscape:window-width="1855"
     inkscape:window-height="1056"
     inkscape:window-x="65"
     inkscape:window-y="24"
     inkscape:window-maximized="1"
     units="px" />
  <metadata
     id="metadata13457">
    <rdf:RDF>
      <cc:Work
         rdf:about="">
        <dc:format>image/svg+xml</dc:format>
        <dc:type
           rdf:resource="http://purl.org/dc/dcmitype/StillImage" />
        <dc:title></dc:title>
      </cc:Work>
    </rdf:RDF>
  </metadata>
  <g
     inkscape:label="Layer 1"
     inkscape:groupmode="layer"
     id="layer1"
     transform="translate(-359.76899,-150.24657)">
    <g
       id="g9007"
       transform="matrix(4.0831584,0,0,4.0831584,2214.8846,-2552.3496)">
      <path
         d="m -356.3705,710.86765 c 0,27.05312 -21.92887,48.98438 -48.98212,48.98438 -27.05075,0 -48.9805,-21.93126 -48.9805,-48.98438 0,-27.05088 21.92975,-48.979 48.9805,-48.979 27.05325,0 48.98212,21.92812 48.98212,48.979"
         style="fill:#000000;fill-opacity:1;fill-rule:nonzero;stroke:none"
         id="path8950"
         inkscape:connector-curvature="0" />
      <path
         d="m -383.93662,680.01115 c -4.977,0.17037 -9.31925,2.915 -12.55325,6.7065 -3.579,4.16262 -5.96038,9.09425 -7.67763,14.13 -3.06887,-2.51425 -5.43662,-5.7725 -10.36138,-7.1885 -3.80662,-1.09625 -7.80512,-0.64463 -11.4805,2.09475 -1.74112,1.30075 -2.94187,3.26562 -3.51262,5.11662 -1.47563,4.80275 1.55275,9.07813 2.92963,10.61376 l 3.01175,3.22362 c 0.61912,0.63237 2.11525,2.28275 1.38475,4.6485 -0.78763,2.57325 -3.88963,4.23587 -7.06988,3.25687 -1.42087,-0.43712 -3.45987,-1.49425 -3.00437,-2.9835 0.1895,-0.60787 0.625,-1.06687 0.86137,-1.58925 0.21188,-0.45175 0.31638,-0.7935 0.38088,-0.99612 0.581,-1.89213 -0.21388,-4.35988 -2.24413,-4.98925 -1.8955,-0.57963 -3.8335,-0.11875 -4.587,2.31925 -0.854,2.775 0.47513,7.80675 7.58163,9.99662 8.32562,2.55863 15.36912,-1.97512 16.36662,-7.88812 0.63187,-3.70025 -1.04337,-6.45313 -4.104,-9.99075 l -2.4965,-2.76225 c -1.51175,-1.50975 -2.03075,-4.085 -0.46587,-6.0625 1.31987,-1.67188 3.19875,-2.38275 6.28175,-1.54488 4.49662,1.22013 6.5005,4.34025 9.84175,6.85688 -1.37788,4.52937 -2.28075,9.07325 -3.09663,13.15187 l -0.502,3.03713 c -2.39012,12.53662 -4.21437,19.42388 -8.9565,23.374 -0.95512,0.68112 -2.32275,1.69925 -4.38137,1.77 -1.07963,0.0342 -1.42725,-0.71037 -1.44138,-1.03262 -0.0244,-0.75451 0.61225,-1.10363 1.03563,-1.44538 0.63525,-0.34663 1.59325,-0.92037 1.52687,-2.75388 -0.0689,-2.17037 -1.86725,-4.05275 -4.46387,-3.96725 -1.94775,0.061 -4.91413,1.89451 -4.80225,5.25138 0.11675,3.46437 3.34275,6.062 8.21137,5.89363 2.60213,-0.0879 8.41263,-1.14263 14.13825,-7.95413 6.665,-7.80275 8.52825,-16.748 9.92913,-23.291 l 1.5675,-8.6475 c 0.86662,0.106 1.79825,0.17825 2.809,0.20075 8.30225,0.17575 12.45212,-4.12162 12.51662,-7.2505 0.04,-1.89213 -1.24225,-3.75787 -3.041,-3.7115 -1.28375,0.0348 -2.8975,0.89163 -3.28612,2.6685 -0.37888,1.74312 2.64162,3.31837 0.28225,4.84912 -1.67675,1.085 -4.68363,1.84913 -8.917,1.22951 l 0.769,-4.25438 c 1.57037,-8.06987 3.50875,-17.99175 10.86137,-18.23588 0.53663,-0.0244 2.49513,0.0244 2.5415,1.31938 0.0126,0.43212 -0.0958,0.54687 -0.60062,1.53662 -0.5185,0.77238 -0.71288,1.43063 -0.69,2.1855 0.0727,2.05913 1.63925,3.41363 3.90625,3.3345 3.03225,-0.10162 3.90487,-3.05175 3.854,-4.56987 -0.1235,-3.56688 -3.88175,-5.82025 -8.853,-5.65625"
         style="fill:#ffffff;fill-opacity:1;fill-rule:nonzero;stroke:none"
         id="path8952"
         inkscape:connector-curvature="0" />
    </g>
  </g>
</svg>
