<?xml version="1.0" encoding="UTF-8" standalone="no"?>
<!-- Created with Inkscape (http://www.inkscape.org/) -->

<svg
   xmlns:dc="http://purl.org/dc/elements/1.1/"
   xmlns:cc="http://creativecommons.org/ns#"
   xmlns:rdf="http://www.w3.org/1999/02/22-rdf-syntax-ns#"
   xmlns:svg="http://www.w3.org/2000/svg"
   xmlns="http://www.w3.org/2000/svg"
   xmlns:sodipodi="http://sodipodi.sourceforge.net/DTD/sodipodi-0.dtd"
   xmlns:inkscape="http://www.inkscape.org/namespaces/inkscape"
   width="400"
   height="400"
   viewBox="0 0 400.00001 399.99999"
   id="svg13452"
   version="1.1"
   inkscape:version="0.91 r">
  <defs
     id="defs13454" />
  <sodipodi:namedview
     id="base"
     pagecolor="#ffffff"
     bordercolor="#666666"
     borderopacity="1.0"
     inkscape:pageopacity="0.0"
     inkscape:pageshadow="2"
     inkscape:zoom="0.35"
     inkscape:cx="-694.76899"
     inkscape:cy="17.884377"
     inkscape:document-units="px"
     inkscape:current-layer="layer1"
     showgrid="false"
     fit-margin-top="0"
     fit-margin-left="0"
     fit-margin-right="0"
     fit-margin-bottom="0"
     inkscape:window-width="1855"
     inkscape:window-height="1056"
     inkscape:window-x="65"
     inkscape:window-y="24"
     inkscape:window-maximized="1"
     units="px" />
  <metadata
     id="metadata13457">
    <rdf:RDF>
      <cc:Work
         rdf:about="">
        <dc:format>image/svg+xml</dc:format>
        <dc:type
           rdf:resource="http://purl.org/dc/dcmitype/StillImage" />
        <dc:title></dc:title>
      </cc:Work>
    </rdf:RDF>
  </metadata>
  <g
     inkscape:label="Layer 1"
     inkscape:groupmode="layer"
     id="layer1"
     transform="translate(-359.76899,-150.24657)">
    <g
       transform="matrix(0.94395251,0,0,0.94395251,635.21012,226.55332)"
       id="g9532">
      <path
         inkscape:connector-curvature="0"
         id="path9536"
         d="m -134.52978,315.15034 c 0.90233,-0.36109 1.98046,-0.31669 2.39583,0.0986 0.41537,0.41536 -0.32292,0.7108 -1.64062,0.65653 -1.45619,-0.06 -1.75238,-0.35618 -0.75521,-0.7552 z m -114.56826,-4.14612 c 0,-1.71875 0.28372,-2.42187 0.63048,-1.5625 0.34677,0.85938 0.34677,2.26563 0,3.125 -0.34676,0.85938 -0.63048,0.15625 -0.63048,-1.5625 z m 75.03386,-4.60447 c -0.22148,-7.40336 -0.37625,-7.75144 -3.66873,-8.25021 l -3.4375,-0.52074 3.47672,-0.18729 c 4.25418,-0.22916 4.92322,1.31165 4.32551,9.96171 l -0.46478,6.726 -0.23122,-7.72947 z m -34.84389,-6.02053 c 0.007,-4.125 0.24037,-5.6618 0.51857,-3.41511 0.27821,2.24669 0.27247,5.62169 -0.0128,7.5 -0.28521,1.87831 -0.51283,0.0401 -0.50582,-4.08489 z m 120.098335,-8.75 c 0.0025,-8.9375 0.201288,-12.42973 0.44245,-7.76051 0.241162,4.66921 0.239362,11.98171 -0.0038,16.25 -0.24335,4.26828 -0.440662,0.44801 -0.438475,-8.48949 z m -96.590675,-0.89058 -0.145,-3.3906 -11.5625,-0.3594 -11.5625,-0.35942 -0.13743,-5.625 -0.13742,-5.625 0.5218,5.3125 0.5218,5.3125 11.21735,0 c 11.74773,0 13.33358,0.77408 12.01461,5.86449 -0.3884,1.499 -0.63456,1.11831 -0.73071,-1.13007 z m 72.45369,0.78642 c 0.06,-1.45619 0.35617,-1.75237 0.7552,-0.75521 0.36109,0.90234 0.31669,1.98047 -0.0986,2.39584 -0.41537,0.41536 -0.7108,-0.32293 -0.65652,-1.64063 z m 7.59867,-0.52084 c 0,-1.71875 0.28373,-2.42187 0.63049,-1.5625 0.34676,0.85938 0.34676,2.26563 0,3.125 -0.34676,0.85938 -0.63049,0.15625 -0.63049,-1.5625 z m 35.818265,-54.60388 c 0.902337,-0.36109 1.980463,-0.31669 2.395838,0.0986 0.415362,0.41536 -0.322926,0.7108 -1.640625,0.65653 -1.456188,-0.06 -1.752376,-0.35618 -0.755213,-0.7552 z m -22.265625,-9.30758 0,-6.41145 -7.1875,0.74043 c -18.41294,1.89683 -30.13417,2.30651 -32.24203,1.1269 -1.87773,-1.05084 -1.44772,-1.38197 2.65712,-2.04605 2.69357,-0.43578 11.99543,-1.27107 20.6708,-1.85623 13.596335,-0.91706 16.141072,-1.4316 18.437497,-3.72802 2.391888,-2.39189 4.0519,-2.66412 16.245538,-2.66412 11.942562,0 13.987725,0.3196 16.948487,2.64853 2.723863,2.1426 6.004175,2.84369 17.172025,3.67011 7.592725,0.56188 14.094776,1.31141 14.449013,1.66564 1.548937,1.54894 -7.121825,2.2989 -17.855575,1.5444 l -11.649663,-0.81889 -0.385362,5.3326 c -0.361962,5.00891 -0.63195,5.35639 -4.44785,5.72431 -4.047063,0.39022 -4.0625,0.37002 -4.0625,-5.3125 l 0,-5.7042 -9.375,0 -9.375,0 0,6.25 0,6.25 -5,0 -5,0 0,-6.41146 z m -65.89081,-21.22935 c -2.77153,-2.77152 6.53464,-25.74035 14.04577,-34.66684 5.33394,-6.33902 5.8511,-4.55137 1.02639,3.54789 -4.43987,7.45325 -11.63274,26.15114 -11.66463,30.32226 -0.0191,2.5018 -1.38343,2.82079 -3.40753,0.79669 z m 133.70331,-2.45931 c 3.29355,-1.91831 2.659875,-4.6775 -2.1875,-9.52488 -2.40625,-2.40625 -4.375,-4.6 -4.375,-4.875 0,-0.275 1.617187,-0.5 3.59375,-0.5 3.024462,0 3.717425,0.61837 4.37445,3.90352 0.664925,3.3246 1.063037,3.66918 2.684475,2.32352 1.099163,-0.91222 1.592088,-2.56201 1.166313,-3.90351 -0.624713,-1.9683 -0.05575,-2.32353 3.721775,-2.32353 2.452587,0 4.459237,0.29844 4.459237,0.66319 0,0.36475 -1.96875,2.39178 -4.375,4.50449 -4.781425,4.19815 -5.864737,9.2597 -2.1875,10.22066 1.203125,0.31441 -0.34375,0.6198 -3.4375,0.67865 -4.386663,0.0835 -5.143425,-0.1735 -3.4375,-1.16711 z m 30.1343,-9.4466 c -2.4528,-6.85746 -8.3053125,-18.74693 -11.7148875,-23.79896 l -3.8832625,-5.7539 4.138175,3.455 c 4.57065,3.81606 10.0650125,11.97535 13.569625,20.15128 1.960438,4.5735 2.03105,5.52953 0.5021875,6.79838 C 7.34709,195.9846 6.81429,195.81084 6.15139,193.9575 Z m -101.556388,-4.92896 c -7.515572,-2.02119 -20.292812,-8.45248 -23.043642,-11.59878 -1.18187,-1.35179 -1.99586,-6.15856 -2.38868,-14.10585 l -0.59589,-12.05532 6.07727,4.3661 c 8.37287,6.0153 16.56773,8.87397 30.473605,10.63032 19.053337,2.40649 37.155937,-1.18411 52.337125,-10.38092 l 7.6248,-4.61913 0.405537,5.80713 c 0.223038,3.19392 0.04413,8.7428 -0.3976,12.33082 -0.778437,6.32309 -1.021537,6.65604 -7.905537,10.82756 -9.234625,5.59597 -21.348738,9.64704 -31.334538,10.47858 l -7.982137,0.66469 0.871225,-5.80977 c 0.479175,-3.19536 0.48015,-8.41766 0.0025,-11.6051 -1.354313,-9.03122 -3.393563,-3.41168 -2.827775,7.79248 l 0.46725,9.25287 -7.5243,-0.0823 c -4.138363,-0.0452 -10.55485,-0.89728 -14.258875,-1.89342 z m 33.384025,-9.58682 c -0.262175,-1.84602 -1.258525,-2.8125 -2.899437,-2.8125 -1.640912,0 -2.637263,0.96648 -2.899437,2.8125 -0.327663,2.3071 0.193362,2.8125 2.899437,2.8125 2.706075,0 3.2271,-0.5054 2.899437,-2.8125 z m -63.758817,-24.29138 c 0.90234,-0.36109 1.98047,-0.31669 2.39584,0.0986 0.41537,0.41536 -0.32292,0.7108 -1.64062,0.65653 -1.45619,-0.06 -1.75238,-0.35618 -0.75522,-0.7552 z m 42.820055,-11.91498 c -5.539513,-2.9672 -9.178375,-7.47351 -4.318738,-5.34827 3.892963,1.70248 20.929138,2.20662 26.121363,0.77297 2.665375,-0.73594 5.055325,-1.12887 5.311012,-0.87319 0.255688,0.25569 -1.581387,2.02565 -4.082387,3.93325 -6.467488,4.933 -15.536625,5.52967 -23.03125,1.51524 z m -118.816535,-4.3164 c -0.0105,-1.49065 -0.30646,-3.4594 -0.65762,-4.375 -0.47148,-1.22929 1.08159,-1.76704 5.9375,-2.05585 3.61679,-0.21511 10.31218,-1.64247 14.87865,-3.17191 7.58349,-2.53993 8.413,-2.60415 9.57629,-0.74144 1.05006,1.68141 0.29454,2.51504 -4.30451,4.74943 -3.06796,1.49053 -9.6273,3.38561 -14.57629,4.21128 -4.94899,0.82568 -9.41142,2.08454 -9.91652,2.79749 -0.50859,0.71788 -0.9269,0.087 -0.9375,-1.414 z m -2.5,-13.85224 c -0.0169,-3.59843 0.37353,-4.06472 3.41836,-4.08202 1.89062,-0.0113 6.8125,-0.88696 10.9375,-1.94716 4.125,-1.06022 8.68681,-2.22693 10.13736,-2.59273 1.89715,-0.47841 2.8161,0.0185 3.27424,1.77036 0.53022,2.0276 -0.4828,2.78838 -6.04955,4.54314 -3.67754,1.15924 -9.65094,2.44976 -13.27424,2.86785 -3.62329,0.41808 -7.00107,1.3773 -7.50617,2.1316 -0.5051,0.7543 -0.92697,-0.45666 -0.9375,-2.69104 z m 247.579547,-2.29166 c 0.06,-1.45619 0.356175,-1.75237 0.7552,-0.75521 0.361088,0.90234 0.316688,1.98046 -0.09863,2.39584 -0.415362,0.41536 -0.7108,-0.32293 -0.656525,-1.64063 z m -6.105,-4.89584 c 0.0255,-2.0625 0.305625,-2.75492 0.62255,-1.53871 0.316925,1.21621 0.296088,2.90371 -0.04638,3.75 -0.342412,0.84629 -0.601712,-0.14879 -0.576237,-2.21129 z m -158.657397,1.00877 c 1.21621,-0.31693 2.90371,-0.29609 3.75,0.0464 0.84628,0.34241 -0.14879,0.60171 -2.21129,0.57624 -2.0625,-0.0255 -2.75493,-0.30563 -1.53871,-0.62255 z m 94.35121,0.0384 c 0.859375,-0.34676 2.265625,-0.34676 3.125,0 0.859375,0.34676 0.15625,0.63049 -1.5625,0.63049 -1.71875,0 -2.421875,-0.28373 -1.5625,-0.63049 z m -85,-1.25 c 0.85937,-0.34676 2.26562,-0.34676 3.125,0 0.85937,0.34676 0.15625,0.63049 -1.5625,0.63049 -1.71875,0 -2.42188,-0.28373 -1.5625,-0.63049 z m 76.328125,-0.026 c 0.902337,-0.36109 1.980462,-0.31669 2.395837,0.0986 0.415363,0.41536 -0.322925,0.7108 -1.640625,0.65652 -1.456187,-0.06 -1.752375,-0.35617 -0.755212,-0.7552 z m 18.75,0 c 0.902337,-0.36109 1.980462,-0.31669 2.395837,0.0986 0.415363,0.41536 -0.322925,0.7108 -1.640625,0.65652 -1.456187,-0.06 -1.752375,-0.35617 -0.755212,-0.7552 z m -63.68965,-9.21219 -2.950975,-2.56606 2.922462,0.8102 c 3.65705,1.01386 14.786725,0.97646 16.456138,-0.0553 2.148812,-1.32804 1.356087,0.89335 -0.9411,2.63716 -3.443638,2.6141 -12.058838,2.15459 -15.486525,-0.82601 z m -3.439262,-6.49645 c 5.955862,-6.01706 7.82455,-7.187497 11.475362,-7.187497 2.445488,0 5.657138,1.055438 7.31195,2.4029 l 2.950975,2.4029 -3.75,1.461077 c -2.153575,0.83907 -6.3992,1.15716 -9.972987,0.74719 -5.732275,-0.6576 -6.57415,-0.39553 -10.676338,3.32352 -2.44935,2.22058 -1.251887,0.80304 2.661038,-3.15009 z m 121.356975,4.6875 c 0.0255,-2.0625 0.305625,-2.75492 0.62255,-1.53871 0.316924,1.21621 0.296087,2.90371 -0.04638,3.75 -0.342412,0.84629 -0.601712,-0.14879 -0.576237,-2.21129 z M -203.43409,97.254223 c 1.04996,-7.60385 5.60992,-25.379113 7.55926,-29.466938 l 1.87446,-3.930774 6.11589,2.323862 c 7.73887,2.940537 11.86982,2.930875 17.69977,-0.04138 4.57,-2.329913 4.6393,-2.329075 4.6393,0.05688 0,3.724662 -5.57421,8.558438 -9.86941,8.558438 -2.05318,0 -4.08458,0.568787 -4.51423,1.263974 -0.42963,0.695175 -0.84602,5.999975 -0.9253,11.78845 -0.16682,12.181675 0.28474,11.768438 -14.24996,13.040615 l -8.93389,0.78187 0.60411,-4.374997 z m 246.737368,3.020837 c 0.06,-1.456187 0.356175,-1.752375 0.755199,-0.755212 0.361088,0.902342 0.316688,1.980462 -0.09862,2.395842 -0.415363,0.41536 -0.7108,-0.32293 -0.656525,-1.64063 z m -54.592451,-12.083337 -2.381237,-2.8125 2.8125,2.381237 c 2.64305,2.237775 3.38155,3.243763 2.3812375,3.243763 -0.2372,0 -1.502825,-1.265625 -2.8125005,-2.8125 z m -6.213187,-5.950012 c -2.248038,-2.248026 -2.416988,-3.465163 -1.605063,-11.5625 0.4991,-4.977488 0.942225,-11.440613 0.984738,-14.362488 l 0.07728,-5.3125 -8.318738,0 c -8.23955,0 -8.2972,0.0238 -6.056262,2.5 1.244362,1.375 1.871625,2.5 1.393937,2.5 -0.477687,0 -3.073712,-1.125 -5.768937,-2.5 -4.974437,-2.537766 -21.25,-3.674271 -21.25,-1.483864 0,2.286055 7.549025,8.018025 12.658625,9.611689 l 5.466375,1.704938 -4.4232,0.08362 c -2.432762,0.046 -6.510887,-0.980738 -9.0625,-2.281625 l -4.6393,-2.365265 -0.01913,4.552752 c -0.02437,5.799438 -0.53175,6.437825 -8.23985,10.367875 l -6.383988,3.254937 -7.03845,-3.285025 -7.038437,-3.285037 -0.01512,-5.939925 -0.015,-5.939931 -4.668988,2.502427 c -2.56795,1.376341 -6.646075,2.477741 -9.062492,2.447566 l -4.39352,-0.05487 4.67615,-1.668925 c 6.186187,-2.207883 10.557,-5.15357 12.198825,-8.221337 1.277425,-2.386884 0.9542,-2.498757 -7.143525,-2.472547 -5.78023,0.01871 -10.24755,0.828645 -14.02668,2.543076 l -5.54523,2.515622 2.30145,-2.543075 c 2.29255,-2.53323 2.26925,-2.543076 -6.01727,-2.543076 l -8.31874,0 0.0171,10.9375 c 0.0184,11.800637 0.86881,16.935088 2.62506,15.849675 2.57062,-1.588737 0.84859,0.595187 -1.87799,2.381713 -6.3713,4.174649 -18.38298,-3.743163 -20.17573,-13.299351 l -0.7849,-4.183925 -6.46425,0.506326 c -4.55353,0.356675 -7.2032,-0.0655 -8.96425,-1.42805 -2.39022,-1.849445 -2.29838,-1.936125 2.09159,-1.974134 3.07446,-0.02661 5.86235,-1.109023 8.4375,-3.275871 4.31486,-3.630718 4.88094,-7.386513 1.96359,-13.028055 -1.74544,-3.375284 -1.70706,-3.733823 0.52747,-4.929717 2.0804,-1.113396 2.52217,-0.778203 3.23165,2.452098 0.72815,3.315216 1.3449,3.746857 5.41003,3.786227 2.52349,0.02444 32.15067,0.01475 65.838168,-0.02153 56.165387,-0.06049 61.611112,0.117413 65.600087,2.143063 13.7898625,7.002686 13.2926375,26.817407 -0.829725,33.064395 -2.99995,1.327012 -5.126712,2.943062 -4.726137,3.5912 1.189537,1.924712 0.05762,1.349687 -2.626175,-1.334075 z m -44.912087,-17.51465 c 0.456287,-2.077438 0.451537,-6.014933 -0.01,-8.749995 l -0.840712,-4.972843 -9.890125,0 -9.890125,0 0,8.75 0,8.75 9.900675,0 9.900687,0 0.8296,-3.777163 z M -119.994,75.448185 c 1.33453,-1.069187 2.97515,-1.943962 3.64584,-1.943962 1.58817,0 0.87904,0.577375 -2.94725,2.399637 -2.94659,1.403313 -2.98648,1.377288 -0.69859,-0.455675 z m 18.51109,-5.354549 c 2.578125,-0.269676 6.796875,-0.269676 9.375,0 2.578125,0.269687 0.46875,0.490324 -4.6875,0.490324 -5.15625,0 -7.26563,-0.220637 -4.6875,-0.490324 z m 48.158037,-0.0063 c 2.940051,-0.264051 7.440051,-0.260338 10,0.0088 2.55995,0.268587 0.154463,0.484637 -5.345537,0.480099 -5.5,-0.005 -7.594513,-0.2243 -4.654463,-0.488362 z m -118.189597,-29.959673 -3.71154,-4.626549 -6.59685,1.522735 c -3.62826,0.837504 -6.80406,1.315518 -7.05732,1.062254 -0.25327,-0.253265 1.94032,-1.76055 4.87465,-3.349523 2.95385,-1.599552 9.29745,-7.484531 14.21251,-13.185022 l 8.8774,-10.295979 2.14999,4.873059 c 2.7932,6.330937 6.93208,7.548079 12.26351,3.606386 l 3.84221,-2.840671 -0.77775,4.792704 c -0.89175,5.495272 -3.74637,8.796696 -8.63879,9.990955 -2.74568,0.670231 -4.13919,0.09829 -7.1875,-2.950034 -2.0798,-2.07984 -3.78146,-4.668516 -3.78146,-5.752651 0,-3.296984 -1.98159,-2.228593 -5.62934,3.035101 l -3.46933,5.006255 2.53026,6.868745 c 1.39165,3.77781 2.36841,6.868745 2.17058,6.868745 -0.19782,0 -2.02988,-2.081946 -4.07123,-4.626547 z m -30.1279,-8.508936 c -5.88651,-5.318109 -9.56499,-13.596045 -10.68805,-24.052054 -0.69435,-6.4645938 -0.51765,-7.8125 1.02417,-7.8125 2.65151,0 3.8331,2.3774688 4.03807,8.125 0.17448,4.892411 7.43361,21.335235 11.45082,25.9375 3.46049,3.964461 -0.77148,2.367619 -5.82501,-2.197946 z m 73.47445,-0.927054 c -0.0674,-0.171875 -1.0847,-5.515625 -2.26069,-11.875 l -2.13817,-11.5625 21.51673,0 21.516753,0 -0.6511,4.85426 c -0.843813,6.291088 1.486699,13.201201 5.52305,16.376194 l 3.203087,2.519546 -23.29358,0 c -12.81146,0 -23.34869,-0.140625 -23.41608,-0.3125 z m 49.391497,-1.464265 c -2.120812,-0.923401 -5.073937,-3.227242 -6.5625,-5.119646 -4.834112,-6.145578 -2.862299,-17.7260902 3.8145,-22.402709 3.502551,-2.453275 12.4986,-2.52207125 17.122525,-0.1309437 3.997888,2.0673837 7.608738,8.7145187 7.601813,13.9939747 -0.0062,5.169324 -4.3938,11.562324 -9.35755,13.636309 -5.2522,2.19451 -7.621513,2.198831 -12.618788,0.02301 z m 15.3901,-4.814144 c 7.032713,-7.032712 3.879026,-19.3741822 -5.682849,-22.2389923 -14.650075,-4.3892687 -23.415288,15.9428033 -10.4554,24.2526803 4.535975,2.908461 12.168462,1.956099 16.138249,-2.013688 z M -80.64156,22.350377 c -2.49375,-2.493746 -3.65385,-4.905533 -3.65385,-7.596154 0,-4.99615 5.887475,-11.25 10.590925,-11.25 4.160312,0 10.119537,3.0410163 11.1326,5.6810025 4.849275,12.6370195 -8.715113,22.5197215 -18.069675,13.1651515 z m 11.34615,1.096174 c 0,-1.513563 -1.518775,-2.260727 -3.247212,-1.597466 -2.626551,1.007904 -2.110563,2.776717 0.747212,2.561447 1.375,-0.103575 2.5,-0.537368 2.5,-0.963982 z m -6.25,-1.309353 c 0,-0.751862 -1.118675,-1.659564 -2.485938,-2.017113 -1.367275,-0.357548 -2.177824,-1.148637 -1.801237,-1.757975 0.3766,-0.609338 0.08902,-1.107887 -0.63905,-1.107887 -1.88905,0 -1.639175,1.329636 0.744962,3.964074 2.322426,2.56625 4.181263,2.974761 4.181263,0.918901 z m 11.042,-3.007636 c -1.372625,-1.372629 -4.620813,0.866302 -3.917138,2.700036 0.630813,1.64389 0.950438,1.635034 2.659163,-0.07369 1.068187,-1.068192 1.634287,-2.250049 1.257975,-2.62635 z m -5.038413,-3.916511 c 0.4853,-3.384866 -3.279412,-4.968717 -5.805637,-2.442494 -1.550263,1.55026 -1.584313,2.188196 -0.205525,3.849541 2.204862,2.656698 5.540487,1.875921 6.011162,-1.407047 z m 6.496413,-0.458828 c 0,-1.375 -0.5625,-2.5 -1.25,-2.5 -0.6875,0 -1.25,1.125 -1.25,2.5 0,1.375 0.5625,2.5 1.25,2.5 0.6875,0 1.25,-1.125 1.25,-2.5 z m -16.588537,0.494791 c -0.415375,-0.415363 -1.4935,-0.459772 -2.395838,-0.09869 -0.997163,0.399032 -0.700975,0.695229 0.755213,0.755209 1.317699,0.05427 2.055987,-0.241161 1.640625,-0.656525 z m 0.963537,-2.994791 c -0.4249,-0.6875 -1.30185,-1.25 -1.948775,-1.25 -0.646925,0 -1.176225,0.5625 -1.176225,1.25 0,0.6875 0.87695,1.25 1.948775,1.25 1.071825,0 1.601125,-0.5625 1.176225,-1.25 z m 2.90415,-4.1660825 c 0.222288,-1.146155 -0.259763,-2.0839175 -1.071225,-2.0839175 -0.811475,0 -1.162613,0.8151037 -0.780325,1.81134 0.488075,1.2718963 0.0945,1.5809025 -1.321312,1.0375775 -1.383113,-0.5307487 -1.719725,-0.2937375 -1.071788,0.7546425 1.241125,2.008187 3.733525,1.115878 4.24465,-1.5196425 z m 7.5418,-0.9710262 c -2.297437,-1.4557288 -3.57095,-1.3805226 -3.57095,0.2108799 0,0.7280738 0.5625,0.9761276 1.25,0.5512288 0.6875,-0.4248987 1.25,-0.1436487 1.25,0.625 0,0.7686488 0.62255,1.0127825 1.38345,0.5425212 0.964413,-0.59604 0.869763,-1.180515 -0.3125,-1.9296299 z M -73.441523,5.769848 c -0.399025,-0.9971663 -0.695225,-0.70097 -0.7552,0.7552087 -0.05425,1.3177075 0.24115,2.0559888 0.656525,1.640625 0.415363,-0.4153649 0.459763,-1.4934899 0.09862,-2.3958337 z m 13.896913,20.952225 c 4.239488,-4.828516 5.8334,-10.212397 4.6366,-15.661421 l -0.81125,-3.6935715 21.844712,-0.3689287 c 12.014588,-0.2029113 21.5924,0.037725 21.284051,0.5347574 -0.308363,0.4970288 -0.801288,2.7470288 -1.0954,4.9999998 -0.2941,2.252973 -1.114063,7.126214 -1.822125,10.829426 -0.708063,3.703212 -1.287388,6.937587 -1.287388,7.1875 0,0.249913 -10.464525,0.454388 -23.254487,0.454388 l -23.254488,0 3.759775,-4.28215 z m -127.96044,-4.137489 c 0.80494,-13.3684085 5.5251,-20.256631 27.38179,-39.958716 l 5.82785,-5.253354 0,4.076943 c 0,4.989341 -1.22244,6.492405 -10.09145,12.4080735 -11.60825,7.7427513 -19.81144,19.2070435 -22.47166,31.4050825 -0.99683,4.570781 -1.06579,4.285096 -0.64653,-2.678029 z m 106.045927,-76.196599 c 1.216213,-0.31693 2.903713,-0.296087 3.75,0.04632 0.846288,0.342404 -0.148787,0.60171 -2.211287,0.576235 -2.0625,-0.02548 -2.754925,-0.305623 -1.538713,-0.622552 z m 13.75,0 c 1.216213,-0.31693 2.903713,-0.296087 3.75,0.04632 0.846288,0.342404 -0.148787,0.60171 -2.211287,0.576235 -2.0625,-0.02548 -2.754925,-0.305623 -1.538713,-0.622552 z"
         style="fill:#575757" />
      <path
         inkscape:connector-curvature="0"
         id="path9534"
         d="m -275.09338,312.87922 c -1.35455,-3.52991 0.55756,-5.625 5.13374,-5.625 l 4.41423,0 -0.007,-5.9375 c -0.006,-5.43267 -0.70624,-6.8143 -8.2322,-16.25 -7.78412,-9.75933 -8.48777,-10.3125 -13.11813,-10.3125 -4.38565,0 -4.8928,-0.32391 -4.8928,-3.125 0,-3.125 0,-3.125 12.5,-3.125 12.5,0 12.5,0 12.5,3.125 0,2.51913 -0.62011,3.125 -3.19841,3.125 -3.16805,0 -3.14745,0.0653 2.17104,6.875 2.95319,3.78125 5.6581,6.85104 6.01091,6.82175 0.81765,-0.0679 10.01646,-11.96623 10.01646,-12.95598 0,-0.40742 -1.125,-0.74077 -2.5,-0.74077 -1.83333,0 -2.5,-0.83333 -2.5,-3.125 0,-3.125 0,-3.125 12.5,-3.125 12.5,0 12.5,0 12.5,3.125 0,2.80102 -0.50719,3.125 -4.89214,3.125 -4.58144,0 -5.41501,0.62689 -13.125,9.87069 -7.77894,9.32645 -8.23286,10.2224 -8.23286,16.25 l 0,6.37931 4.375,0 c 4.02778,0 4.375,0.29763 4.375,3.75 l 0,3.75 -12.53923,0 c -9.99287,0 -12.68534,-0.38076 -13.25874,-1.875 z m 50.79797,-1.875 c 0,-3.45237 0.34722,-3.75 4.375,-3.75 l 4.375,0 0,-16.25 0,-16.25 -4.375,0 c -3.83333,0 -4.375,-0.3869 -4.375,-3.125 l 0,-3.125 25,0 25,0 0,8.125 c 0,7.83334 -0.11212,8.125 -3.125,8.125 -2.81672,0 -3.125,-0.49727 -3.125,-5.04093 l 0,-5.04094 -14.0625,0.35344 -14.0625,0.35343 0,5.625 0,5.625 11.5625,0.35942 c 11.35571,0.35297 11.5625,0.41445 11.5625,3.4375 0,3.05477 -0.0899,3.07808 -11.875,3.07808 l -11.875,0 0,6.875 0,6.875 14.375,0 14.375,0 0,-4.375 c 0,-3.83333 0.3869,-4.375 3.125,-4.375 3.01283,0 3.125,0.29167 3.125,8.125 l 0,8.125 -25,0 -25,0 0,-3.75 z m 78.5533,2.53164 c -10.83141,-3.27217 -16.49305,-11.15066 -16.38334,-22.79835 0.1395,-14.80976 10.0573,-22.73329 28.45504,-22.73329 11.78005,0 20.10134,3.24819 24.63605,9.6166 3.36875,4.73099 4.60305,17.67598 2.23134,23.40178 -2.09276,5.05237 -8.88603,10.80699 -14.64573,12.40646 -5.45185,1.514 -19.43187,1.57545 -24.29336,0.10675 z m 25.7299,-7.98154 c 5.09745,-3.33998 7.44904,-7.98238 7.35055,-14.51115 -0.16987,-11.26067 -6.71596,-16.29028 -21.19766,-16.28701 -10.49568,0.002 -16.42444,2.65311 -19.56644,8.74806 -4.44409,8.62079 -0.63514,19.06114 8.50535,23.31322 5.04541,2.34708 20.60236,1.55817 24.9082,-1.26312 z m 22.418837,7.3249 c -1.358775,-3.54088 0.557163,-5.625 5.171075,-5.625 l 4.451576,0 -0.349838,-15.9375 -0.34985,-15.9375 -4.6875,-0.38796 c -4.029725,-0.33351 -4.6875,-0.81587 -4.6875,-3.4375 0,-2.91511 0.3527,-3.04954 8.001488,-3.04954 l 8.001487,0 11.686013,18.11608 c 6.4273,9.96384 12.0495,18.12009 12.493775,18.125 0.444262,0.005 6.006212,-8.14733 12.359875,-18.11608 l 11.552125,-18.125 7.952625,0 c 7.64945,0 7.952612,0.11913 7.952612,3.125 0,2.7381 -0.541662,3.125 -4.375,3.125 l -4.375,0 0,16.1708 0,16.1708 4.0625,0.3917 c 3.39555,0.32739 4.0625,0.90474 4.0625,3.5167 0,3.0952 -0.11625,3.12842 -12.1875,3.48277 l -12.1875,0.35776 0,-3.79526 c 0,-3.50412 0.335625,-3.79527 4.375,-3.79527 l 4.375,0 -0.0125,-12.8125 -0.0125,-12.8125 -4.777312,7.5 c -15.060425,23.64365 -16.513738,25.625 -18.7957,25.625 -1.658288,0 -5.566438,-4.94013 -13.102601,-16.5625 l -10.739449,-16.5625 -0.03063,12.8125 -0.02931,12.8125 4.375,0 c 4.027775,0 4.375,0.29763 4.375,3.75 l 0,3.75 -11.914225,0 c -9.437325,0 -12.063825,-0.3898 -12.633738,-1.875 z m 90.797963,-1.75427 c 0,-3.38528 0.4153875,-3.7547 4.618725,-4.10776 4.5390875,-0.38128 4.754225,-0.64663 12.475712,-15.38797 4.321338,-8.25 7.867913,-15.42187 7.881275,-15.9375 0.01335,-0.51562 -2.225712,-0.9375 -4.975712,-0.9375 -4.5,0 -5,-0.3125 -5,-3.125 0,-3.08293 0.1399875,-3.125 10.400138,-3.125 l 10.400149,0 9.9968,19.0625 c 9.946813,18.96715 10.019838,19.06444 14.599863,19.45047 4.18595,0.3528 4.60305,0.72501 4.60305,4.10776 l 0,3.7198 -12.1875,-0.35776 c -12.071263,-0.35435 -12.1875,-0.38757 -12.1875,-3.48277 0,-2.47987 0.709637,-3.20665 3.4375,-3.52052 3.950837,-0.4546 3.901887,-0.34261 1.98685,-4.54566 -1.40905,-3.09254 -1.797475,-3.18382 -13.54935,-3.18382 -11.751875,0 -12.1403,0.0913 -13.54935,3.18382 -1.915037,4.20305 -1.963987,4.09106 1.98685,4.54566 2.727863,0.31387 3.4375,1.04065 3.4375,3.52052 0,3.0952 -0.11625,3.12842 -12.1875,3.48277 l -12.1875,0.35776 0,-3.7198 z m 40,-18.53841 c 0,-1.36378 -6.773363,-14.07638 -7.5,-14.07638 -0.726637,0 -7.5,12.7126 -7.5,14.07638 0,0.50472 3.375,0.91768 7.5,0.91768 4.125,0 7.5,-0.41296 7.5,-0.91768 z m 32.5,18.41768 c 0,-3.45237 0.347225,-3.75 4.375,-3.75 l 4.375,0 0,-16.25 0,-16.25 -4.375,0 c -3.833337,0 -4.375,-0.3869 -4.375,-3.125 0,-2.99931 0.313575,-3.125 7.796325,-3.125 l 7.796313,0 17.203687,17.17075 17.203675,17.17077 0,-14.04577 0,-14.04575 -4.375,0 c -3.83334,0 -4.375,-0.3869 -4.375,-3.125 0,-3.125 0,-3.125 12.5,-3.125 12.5,0 12.5,0 12.5,3.125 0,2.7381 -0.54166,3.125 -4.375,3.125 l -4.375,0 0,20 0,20 -2.97181,0 c -2.16514,0 -7.75807,-4.83508 -20.604415,-17.8125 l -17.632612,-17.8125 -0.02057,14.0625 -0.02059,14.0625 4.375,0 c 4.027775,0 4.375,0.29763 4.375,3.75 l 0,3.75 -12.5,0 -12.5,0 0,-3.75 z m -164.4255,-75.47248 c -45.82125,-7.51937 -82.54241,-38.46282 -98.54451,-83.03952 -4.79076,-13.34552 -4.86086,-13.17287 6.05294,-14.90933 5.13311,-0.81672 11.60376,-2.64342 14.37921,-4.05935 l 5.04627,-2.57442 7.18329,7.23567 c 8.91014,8.97508 18.58038,13.75697 32.98266,16.30978 l 10.98159,1.94649 0.35952,10.09409 0.35953,10.09407 5.95298,3.97848 c 8.94149,5.97577 19.039945,9.32557 30.32932,10.0607 l 10.032313,0.65326 -0.475263,-9.4116 c -0.572,-11.32714 1.455975,-17.04561 2.819762,-7.95119 0.477988,3.18744 0.477013,8.40974 -0.0025,11.6051 l -0.871225,5.80977 7.982138,-0.66469 c 9.957725,-0.8292 22.094487,-4.87936 31.254487,-10.42994 7.58245,-4.59464 8.55735,-6.74991 8.588888,-18.98779 l 0.01375,-5.33791 4.96525,2.53309 c 8.8107,4.49487 13.357375,9.62137 19.1800125,21.62597 3.0723125,6.33422 5.9343875,12.56448 6.360175,13.84503 0.6165625,1.85436 1.1362625,2.02775 2.5532,0.8518 1.5283745,-1.26844 1.4530625,-2.23699 -0.534575,-6.87393 -1.2724875,-2.9686 -3.8213,-7.78577 -5.6640125,-10.70483 l -3.3504,-5.30738 7.529375,5.79373 7.529387,5.79372 5.606038,-9.06569 C 48.148627,128.72922 42.49349,70.87011 5.8353275,30.760247 2.37629,26.975503 -3.562785,21.480358 -7.36261,18.548813 c -5.82365,-4.49291 -6.791213,-5.798489 -6.160275,-8.312335 l 0.7485,-2.982255 -21.484838,0 -21.484825,0 0.823638,3.75 c 1.208813,5.503682 -0.371088,10.873818 -4.6242,15.71785 l -3.759775,4.28215 33.803362,0 33.8033755,0 -2.230525,6.5625 -2.230525,6.5625 -72.4925125,0.322488 -72.4925,0.322488 -1.54001,-5.140097 c -0.847,-2.827053 -1.84132,-5.925298 -2.20959,-6.884988 -0.56289,-1.466872 4.75608,-1.744891 33.38274,-1.744891 l 34.05231,0 -3.203087,-2.519546 c -4.03015,-3.170119 -6.367175,-10.082779 -5.52685,-16.34785 l 0.647287,-4.8259177 -22.06475,-0.3408425 c -20.87751,-0.3225038 -22.33977,-0.1894613 -27.17617,2.4725975 l -5.11143,2.8134397 -1.33541,-2.9308947 c -1.2275,-2.6940813 -0.83975,-3.2203713 4.79892,-6.51354 3.48859,-2.03744005 6.13434,-4.4880838 6.13434,-5.6819601 0,-1.1546237 -0.86265,-6.6468224 -1.91699,-12.2048852 -1.83551,-9.675975 -1.81126,-10.312818 0.57019,-14.980846 7.51976,-14.739961 29.78952,-22.875371 62.5968,-22.867351 26.533288,0.0065 44.339337,5.93266 58.21925,19.376412 7.8316625,7.585562 7.785725,7.304743 4.32935,26.4713503 -1.348263,7.47653745 -2.332637,13.653535 -2.1875,13.7266612 3.7381,1.88333 14.8414,11.2685675 21.650775,18.3006465 15.438813,15.94376 25.623437,34.101802 31.4311,56.038176 2.695313,10.180538 3.147725,14.584213 3.147725,30.639347 0,16.25252 -0.4383,20.41499 -3.290525,31.25 -12.029463,45.69742 -48.2026625,81.12347 -93.071763,91.14938 -12.645875,2.82569 -33.652787,3.51356 -45.903912,1.50314 z m 16.9255,-8.27752 0,-6.25 9.375,0 9.375,0 0,5.7042 c 0,5.68252 0.01537,5.70272 4.0625,5.3125 3.8159,-0.36792 4.085888,-0.7154 4.44785,-5.72431 l 0.385362,-5.3326 11.649663,0.81889 c 10.73375,0.7545 19.404512,0.005 17.855575,-1.5444 -0.354237,-0.35423 -6.856288,-1.10376 -14.449013,-1.66564 -11.16785,-0.82642 -14.448162,-1.52751 -17.172025,-3.67011 -2.960762,-2.32893 -5.005925,-2.64853 -16.948487,-2.64853 -12.193638,0 -13.85365,0.27223 -16.245538,2.66412 -2.296425,2.29642 -4.841162,2.81096 -18.437497,3.72802 -8.67537,0.58516 -17.97723,1.42045 -20.6708,1.85623 -4.10484,0.66408 -4.53485,0.99521 -2.65712,2.04605 2.10786,1.17961 13.82909,0.76993 32.24203,-1.1269 l 7.1875,-0.74043 0,6.41145 0,6.41146 5,0 5,0 0,-6.25 z m -72.48328,-22.1875 c 0.0319,-4.17112 7.22475,-22.86901 11.66463,-30.32226 4.82471,-8.09926 4.30755,-9.88691 -1.02639,-3.54789 -7.51113,8.92649 -16.8173,31.89532 -14.04577,34.66684 2.0241,2.0241 3.38841,1.70511 3.40753,-0.79669 z m 137.17078,-1.17416 c -3.677237,-0.96096 -2.593925,-6.02251 2.1875,-10.22066 2.40625,-2.11271 4.375,-4.13974 4.375,-4.50449 0,-0.36475 -2.00665,-0.66319 -4.459237,-0.66319 -3.777488,0 -4.346488,0.35523 -3.721775,2.32353 0.425775,1.3415 -0.06713,2.99129 -1.166313,3.90351 -1.621437,1.34566 -2.01955,1.00108 -2.684475,-2.32352 -0.657025,-3.28515 -1.349988,-3.90352 -4.37445,-3.90352 -1.976563,0 -3.59375,0.225 -3.59375,0.5 0,0.275 1.96875,2.46875 4.375,4.875 4.847375,4.84738 5.48105,7.60657 2.1875,9.52488 -1.705925,0.99361 -0.949163,1.25055 3.4375,1.16711 3.09375,-0.0589 4.640625,-0.36424 3.4375,-0.67865 z M -66.157635,29.204443 c 4.96375,-2.073985 9.350775,-8.466985 9.35755,-13.636309 0.0075,-5.279456 -3.603925,-11.926591 -7.601812,-13.9939747 -4.623925,-2.39112755 -13.619975,-2.3223313 -17.122526,0.1309437 -6.676799,4.6766188 -8.648612,16.257131 -3.8145,22.402709 2.789138,3.545818 8.727825,6.761422 12.646163,6.847483 1.2252,0.02691 4.166012,-0.760973 6.535125,-1.750852 z m -13.366937,-2.777441 c -9.317275,-5.974236 -8.195725,-18.9788727 2.070537,-24.0082665 2.794,-1.3687688 4.469125,-1.4175975 8.384863,-0.2444138 13.779612,4.128475 12.054987,24.1714503 -2.223013,25.8349973 -3.286137,0.382871 -5.972913,-0.133545 -8.232388,-1.582317 z m 14.660975,-3.49096 c 3.051999,-3.051994 4.064937,-9.129869 2.291712,-13.7508165 -1.013063,-2.6399862 -6.972288,-5.6810025 -11.1326,-5.6810025 -4.70345,0 -10.590925,6.25385 -10.590925,11.25 0,9.467992 12.769162,14.844479 19.431812,8.181819 z m -9.431813,0.624231 c 0,-1.346 3.280825,-2.608553 4.252788,-1.63659 1.393374,1.393375 0.755862,2.297878 -1.752788,2.486849 -1.375,0.103575 -2.5,-0.279041 -2.5,-0.850259 z m -5.431263,-2.341976 c -2.384137,-2.634438 -2.634012,-3.964074 -0.744962,-3.964074 0.728075,0 1.01565,0.498549 0.63905,1.107887 -0.376587,0.609338 0.433962,1.400427 1.801237,1.757975 1.367263,0.357549 2.485938,1.265251 2.485938,2.017113 0,2.05586 -1.858837,1.647349 -4.181263,-0.918901 z m 11.306126,0.611301 c -0.407801,-1.062699 0.1347,-2.19531 1.257975,-2.62635 2.875387,-1.10339 3.6486,0.305246 1.401187,2.552664 -1.708725,1.70872 -2.02835,1.717576 -2.659162,0.07369 z m -7.132438,-5.2095 c -1.378787,-1.661345 -1.344738,-2.299281 0.205525,-3.849541 2.526225,-2.526223 6.290938,-0.942372 5.805638,2.442493 -0.470675,3.282969 -3.8063,4.063745 -6.011163,1.407048 z m 10.007575,-1.865875 c 0,-1.375 0.5625,-2.5 1.25,-2.5 0.6875,0 1.25,1.125 1.25,2.5 0,1.375 -0.5625,2.5 -1.25,2.5 -0.6875,0 -1.25,-1.125 -1.25,-2.5 z m -16.484375,0.396108 c 0.902337,-0.361089 1.980463,-0.316681 2.395838,0.09869 0.415362,0.415365 -0.322926,0.710801 -1.640625,0.656525 -1.456188,-0.05997 -1.752376,-0.356176 -0.755213,-0.755209 z m 0.234375,-2.896108 c 0,-0.6875 0.5293,-1.25 1.176225,-1.25 0.646925,0 1.523875,0.5625 1.948775,1.25 0.4249,0.6875 -0.104375,1.25 -1.176225,1.25 -1.071825,0 -1.948775,-0.5625 -1.948775,-1.25 z m 1.7845,-2.64644 c -0.647937,-1.04838 -0.311325,-1.2853912 1.071788,-0.7546425 1.415875,0.543325 1.809387,0.2343188 1.321312,-1.0375775 -0.382288,-0.9962363 -0.03115,-1.81134 0.780325,-1.81134 1.8509,0 1.179637,3.997186 -0.780875,4.6499 -0.796375,0.265136 -1.873025,-0.205717 -2.39255,-1.04634 z m 10.7155,-1.10356 c 0,-0.7686487 -0.5625,-1.0498987 -1.25,-0.625 -0.6875,0.4248988 -1.25,0.176845 -1.25,-0.5512288 0,-1.5914025 1.273513,-1.6666087 3.57095,-0.2108799 1.182263,0.7491149 1.276913,1.3335899 0.3125,1.9296299 -0.7609,0.4702613 -1.38345,0.2261276 -1.38345,-0.5425212 z m -4.901313,-1.9791663 c 0.06,-1.4561787 0.356175,-1.752375 0.7552,-0.7552087 0.361088,0.9023438 0.316688,1.9804688 -0.09862,2.3958337 -0.415375,0.4153638 -0.710799,-0.3229175 -0.656525,-1.640625 z M -202.34159,132.54137 c -0.3871,-0.3871 -0.70382,-1.93618 -0.70382,-3.44241 0,-2.41234 0.85627,-2.8293 7.1875,-3.49992 3.95313,-0.41873 9.92112,-1.69778 13.26221,-2.84233 6.25009,-2.14107 8.22663,-1.44914 8.28115,2.89904 0.0329,2.62645 -25.9121,9.00057 -28.02704,6.88562 z m -1.69712,-21.04598 0.3683,-9.86617 8.75,-0.768 c 4.8125,-0.4224 9.93209,-1.169284 11.37688,-1.659734 2.37156,-0.805088 2.70253,-0.30525 3.40547,5.142984 0.42825,3.31912 1.11418,7.20204 1.52429,8.62874 0.642,2.23338 -0.15953,2.88633 -5.7655,4.69685 -3.58114,1.15659 -9.55239,2.46031 -13.26945,2.89718 l -6.75828,0.79431 0.36829,-9.86616 z m 70.03099,5.15155 c -8.45593,-2.38015 -14.03769,-5.28092 -14.03769,-7.29519 0,-2.86984 12.2166,-20.267902 17.92928,-25.533652 3.07735,-2.836612 8.59906,-6.710687 12.27046,-8.609063 5.77064,-2.983849 8.45394,-3.515324 19.80026,-3.921812 12.038225,-0.431262 13.6274,-0.212325 19.192413,2.644163 l 6.067412,3.11435 5.681263,-3.02075 c 4.836224,-2.571451 7.412887,-3.020763 17.3232,-3.020763 13.807312,0 21.937862,2.563412 30.53825,9.62815 10.3103245,8.46935 24.122687,27.946627 21.604337,30.464977 -3.546,3.546 -16.43615,6.64681 -27.906875,6.71317 -10.682425,0.0618 -12.628213,-0.30032 -19.375,-3.60582 -4.441037,-2.17583 -10.70655,-6.89174 -15.361825,-11.5625 -10.850825,-10.886914 -13.454863,-10.853264 -25.359775,0.32775 -4.881513,4.58469 -11.795488,9.61107 -15.64378,11.37289 -8.72368,3.99382 -23.11794,5.0074 -32.72193,2.3041 z m 64.71231,-26.124204 c 0,-0.264813 -0.800075,-2.374188 -1.777938,-4.6875 l -1.777937,-4.206013 -1.347063,3.518875 c -1.945737,5.082775 -1.71095,5.856125 1.777938,5.856125 1.71875,0 3.125,-0.216675 3.125,-0.481487 z M -171.19735,33.419338 c -0.55673,-1.754102 0.27434,-4.164604 2.58577,-7.5 3.88205,-5.601794 4.98623,-6.017825 5.97155,-2.249944 0.47697,1.823948 -0.5294,4.191218 -3.18842,7.5 -2.13695,2.659156 -4.03457,4.834829 -4.21693,4.834829 -0.18236,0 -0.70074,-1.163199 -1.15197,-2.584885 z"
         style="fill:#0c0c0c" />
    </g>
  </g>
</svg>
